<?xml version="1.0" standalone="no"?>
<!DOCTYPE svg PUBLIC "-//W3C//DTD SVG 20010904//EN"
 "http://www.w3.org/TR/2001/REC-SVG-20010904/DTD/svg10.dtd">
<svg version="1.0" xmlns="http://www.w3.org/2000/svg"
 width="1200.000000pt" height="1362.000000pt" viewBox="0 0 1200.000000 1362.000000"
 preserveAspectRatio="xMidYMid meet">
<metadata>
Created by potrace 1.16, written by Peter Selinger 2001-2019
</metadata>
<g transform="translate(0.000000,1362.000000) scale(0.100000,-0.100000)"
fill="#000000" stroke="none">
<path d="M70 7685 l0 -5935 5925 0 5925 0 0 5935 0 5935 -5925 0 -5925 0 0
-5935z m10100 5050 l0 -605 -4195 0 -4195 0 0 605 0 605 4195 0 4195 0 0 -605z
m1460 0 l0 -605 -600 0 -600 0 0 605 0 605 600 0 600 0 0 -605z m-10090 -15
l0 -590 -575 0 -575 0 0 590 0 590 575 0 575 0 0 -590z m0 -5045 l0 -4275
-575 0 -575 0 0 4275 0 4275 575 0 575 0 0 -4275z m8626 3148 c-3 -621 -9
-1145 -12 -1166 -7 -40 -28 -57 -47 -38 -6 6 -14 42 -18 81 -13 122 -67 200
-138 200 -33 0 -37 -3 -49 -40 -18 -59 -17 -62 31 -59 23 2 44 0 47 -4 9 -12
-41 -83 -74 -105 -18 -12 -42 -22 -54 -22 -18 0 -22 6 -22 32 0 28 -11 43 -64
93 l-64 60 5 85 c5 80 4 86 -18 106 -28 24 -80 44 -118 44 -40 -1 -107 -35
-127 -65 -17 -26 -17 -28 1 -41 10 -8 31 -14 45 -14 33 0 50 -17 50 -49 0 -25
-46 -104 -136 -233 -23 -32 -25 -40 -13 -54 10 -12 24 -15 54 -12 40 5 41 4
59 -40 14 -31 20 -80 24 -164 4 -109 7 -122 30 -149 20 -25 24 -37 20 -74 -10
-89 -89 -151 -181 -142 -67 6 -96 36 -106 110 -4 31 -16 65 -25 76 -24 26 -97
41 -209 41 -100 1 -173 12 -189 28 -7 7 -4 19 11 38 29 37 28 81 -3 95 -32 15
-72 4 -79 -21 -7 -28 -42 -26 -72 5 -30 29 -30 37 -5 94 28 61 26 81 -6 81
-41 0 -99 20 -130 45 l-28 22 43 22 c24 12 62 26 84 30 l42 7 -2 50 c-1 28
-10 73 -20 100 -16 41 -23 50 -47 52 -25 3 -27 1 -25 -25 4 -43 -8 -68 -44
-88 -41 -22 -64 -17 -89 16 -28 37 -12 62 62 99 42 21 60 36 60 50 0 27 -10
31 -117 45 -94 14 -123 25 -123 50 0 20 17 23 107 17 81 -5 83 -4 118 26 19
18 47 35 60 38 34 8 45 32 38 82 -7 52 12 77 69 94 69 20 71 -16 6 -116 -36
-56 -57 -120 -44 -133 3 -3 31 1 61 10 65 18 83 14 91 -19 11 -44 -3 -72 -43
-84 -52 -17 -83 -38 -83 -56 0 -8 13 -32 29 -52 16 -20 34 -56 40 -78 21 -79
62 -81 75 -5 3 22 21 59 40 84 44 58 56 81 56 109 0 13 11 33 24 46 14 12 33
43 42 69 19 49 19 48 -27 121 -11 18 -11 25 -1 40 40 55 53 82 63 129 14 71 5
110 -31 128 -43 22 -96 20 -103 -5 -7 -29 -61 -27 -91 3 -12 12 -38 52 -57 87
-79 150 -172 188 -275 115 l-49 -35 -3 27 c-2 15 4 54 14 86 14 45 15 65 7 85
-18 46 -224 313 -257 333 -42 25 -77 24 -136 -6 -49 -25 -132 -47 -221 -59
l-45 -7 4 88 c5 106 -10 153 -60 183 -45 27 -55 25 -78 -12 -24 -39 -26 -81
-5 -98 17 -14 19 -43 5 -71 -14 -25 -22 -24 -60 7 -22 19 -29 32 -24 46 7 24
-13 49 -34 41 -9 -4 -38 -21 -64 -39 -58 -39 -111 -58 -143 -50 -25 6 -38 36
-50 113 -7 46 -52 115 -86 133 -11 7 -32 9 -45 6 -24 -6 -134 -112 -134 -128
0 -5 31 -8 69 -8 52 0 74 -4 92 -19 21 -16 22 -21 9 -36 -8 -9 -33 -26 -57
-37 -84 -40 -132 -131 -88 -168 13 -11 21 -9 45 8 36 27 47 27 55 2 10 -31 -3
-57 -36 -70 -94 -39 -179 125 -135 261 16 46 16 54 2 67 -8 8 -40 17 -70 20
-43 3 -64 0 -96 -17 l-42 -22 -20 26 c-11 15 -30 25 -44 25 -72 0 -96 48 -95
189 1 114 -9 148 -42 135 -10 -3 -22 -15 -28 -25 -12 -24 -22 -24 -84 2 -27
11 -201 51 -385 89 -184 37 -362 78 -395 90 -78 29 -201 36 -386 21 -164 -13
-219 -24 -234 -44 -6 -8 -19 -16 -30 -18 -12 -3 -33 -28 -53 -67 -35 -66 -48
-72 -92 -47 -32 18 -58 19 -76 1 -8 -8 -38 -20 -68 -26 -32 -6 -83 -30 -131
-60 -69 -44 -142 -70 -194 -70 -40 0 -109 -58 -149 -127 -22 -37 -48 -75 -59
-85 -19 -17 -273 -138 -290 -138 -21 0 -43 37 -56 96 -21 89 -30 100 -110 137
-52 24 -89 51 -135 98 -62 64 -62 64 -90 48 l-27 -15 3 36 c5 50 -13 55 -91
29 -81 -27 -186 -89 -253 -150 -30 -27 -60 -49 -68 -49 -8 0 -33 -16 -57 -36
l-42 -35 -89 7 c-71 5 -97 3 -133 -10 -54 -21 -109 -81 -142 -155 -21 -47 -24
-68 -21 -128 3 -62 10 -85 49 -162 l46 -91 -46 -37 c-25 -20 -77 -67 -116
-104 -38 -36 -81 -69 -94 -72 -13 -3 -64 -1 -115 4 -109 13 -144 5 -203 -46
-57 -48 -119 -75 -176 -75 -54 0 -73 11 -169 93 l-58 49 0 649 0 649 4196 0
4197 0 -7 -1127z m1464 -3148 l0 -4275 -600 0 -600 0 0 4275 0 4275 600 0 600
0 0 -4275z m-6160 4170 c19 -4 49 -15 65 -24 17 -8 64 -18 105 -21 l75 -5 3
-77 c3 -81 1 -85 -41 -69 -34 13 -94 -18 -146 -74 -46 -50 -57 -82 -43 -125
10 -26 8 -32 -13 -48 -13 -10 -44 -27 -69 -36 -25 -10 -46 -23 -46 -30 0 -19
82 -66 116 -66 39 0 47 10 68 83 15 51 24 63 76 104 35 27 60 54 60 65 0 11 7
18 18 18 23 0 34 -10 52 -43 7 -15 47 -67 87 -114 97 -112 98 -115 78 -167
-33 -86 3 -159 41 -84 34 68 63 97 102 103 20 4 53 13 74 22 43 18 55 12 74
-33 25 -59 2 -91 -93 -129 -32 -13 -59 -28 -61 -34 -4 -12 70 -94 112 -123 16
-12 45 -24 65 -28 l36 -5 -57 -32 c-31 -18 -59 -37 -63 -43 -7 -11 63 -85 122
-131 l33 -24 -70 -54 c-39 -29 -70 -56 -70 -60 0 -4 20 -22 44 -40 65 -49 68
-62 50 -193 -18 -123 -13 -217 11 -255 20 -29 14 -38 -30 -53 -41 -13 -42 -21
-14 -61 19 -28 19 -29 2 -29 -27 0 -43 20 -43 52 0 52 -39 136 -81 171 -21 19
-39 39 -39 46 0 6 25 22 55 35 67 30 74 51 45 129 -24 65 -64 100 -107 95 -26
-3 -28 -6 -31 -58 -4 -62 -14 -80 -42 -73 -24 6 -43 29 -60 73 -8 19 -33 64
-57 100 -59 89 -64 121 -26 159 17 16 47 34 69 40 57 15 80 35 99 86 23 60 14
95 -25 95 -20 0 -35 -8 -50 -30 -30 -41 -74 -64 -100 -50 -43 23 -45 63 -6
138 35 68 8 99 -76 88 -59 -8 -124 8 -138 34 -5 10 -10 41 -10 69 0 84 -15 99
-57 59 -17 -15 -23 -33 -23 -62 0 -23 -5 -61 -11 -85 -13 -60 -5 -79 42 -91
52 -14 100 -58 140 -128 l32 -57 -49 -43 c-60 -54 -117 -84 -141 -75 -34 12
-83 54 -83 71 0 9 9 46 20 80 26 84 26 146 0 172 -11 11 -44 31 -73 44 -66 29
-97 66 -97 117 0 45 -8 49 -103 46 -66 -2 -70 0 -97 30 -16 18 -32 52 -39 82
-29 134 -5 174 100 169 l64 -3 3 -45 c1 -25 5 -55 7 -67 8 -34 42 -29 66 10
29 46 22 176 -15 268 -14 36 -26 71 -26 77 0 17 49 39 105 47 104 13 116 23
74 61 -11 10 -25 27 -31 37 -8 16 -7 18 9 14 10 -3 34 -9 53 -12z m648 -189
c6 -28 14 -87 20 -131 6 -44 14 -88 17 -97 4 -10 0 -20 -12 -26 -32 -17 -91
11 -140 67 -25 28 -65 65 -89 82 -70 48 -96 126 -55 163 18 16 22 16 80 -4 33
-11 70 -20 81 -20 31 0 60 18 60 38 1 34 29 -18 38 -72z m318 -191 c3 -14 3
-36 0 -50 -7 -29 -59 -59 -87 -50 -14 5 -21 1 -27 -15 -8 -21 -8 -21 -32 5
-23 25 -23 27 -11 86 6 33 16 71 21 84 l9 23 60 -29 c44 -21 62 -36 67 -54z
m-2936 20 c5 -13 12 -46 16 -73 6 -45 4 -51 -21 -70 -24 -19 -111 -52 -137
-52 -18 0 -6 38 27 84 19 27 35 59 35 71 0 55 62 87 80 40z m1010 -40 c0 -9 9
-15 24 -15 30 0 39 -12 61 -80 32 -101 54 -109 168 -59 120 53 171 50 202 -12
30 -57 -1 -90 -59 -62 -19 9 -41 13 -50 10 -22 -9 -20 -62 4 -116 l20 -43 113
7 c106 6 113 5 135 -15 29 -28 42 -61 42 -110 0 -42 2 -44 82 -55 94 -13 133
-77 145 -242 6 -80 5 -83 -20 -103 -14 -11 -29 -30 -32 -41 -5 -15 -10 -18
-18 -10 -6 6 -21 11 -33 11 -35 0 -46 24 -52 122 l-7 93 -45 8 c-25 4 -60 10
-77 13 -25 5 -33 3 -33 -8 0 -24 88 -189 131 -246 51 -67 49 -87 -8 -86 -24 0
-61 9 -84 19 l-41 19 6 90 c7 110 -5 151 -54 184 -45 30 -55 50 -76 144 -9 42
-25 91 -35 107 -33 54 -137 64 -194 19 -14 -11 -25 -24 -25 -29 0 -15 59 -36
122 -44 31 -4 65 -13 75 -20 20 -15 29 -1 -69 -121 -26 -32 -62 -85 -79 -118
l-32 -59 34 6 c19 3 66 13 106 21 80 18 98 15 107 -17 20 -74 -2 -127 -66
-162 -70 -38 -88 -59 -88 -100 0 -28 7 -39 37 -62 20 -15 55 -45 78 -65 23
-21 47 -38 53 -38 6 0 19 15 28 33 24 47 65 87 89 87 42 0 95 -85 95 -151 0
-17 7 -45 15 -62 15 -31 77 -78 123 -92 30 -9 28 -26 -8 -60 l-30 -29 -16 22
c-10 14 -26 22 -45 22 -31 0 -41 -14 -54 -73 -4 -20 -16 -33 -40 -43 -79 -33
-515 -42 -617 -14 -20 6 -56 26 -78 45 -23 19 -51 35 -62 35 -12 0 -43 -20
-69 -45 -26 -25 -58 -45 -70 -45 -27 0 -96 68 -105 104 -12 49 0 51 209 48
115 -2 204 1 219 7 15 6 39 30 54 53 55 89 85 91 180 8 91 -79 141 -105 187
-96 73 14 55 61 -41 110 -38 19 -87 50 -110 69 -29 25 -60 39 -100 47 -123 26
-282 81 -326 115 -18 14 -35 25 -38 25 -3 0 -8 -34 -11 -75 -10 -108 -45 -165
-105 -165 -30 0 -51 48 -59 135 -5 58 -4 64 16 75 35 18 23 50 -34 87 -66 43
-81 63 -90 120 -9 65 -19 79 -55 87 -67 13 -136 90 -109 122 21 25 52 15 94
-30 29 -32 51 -46 80 -52 22 -4 54 -18 70 -32 17 -14 70 -45 119 -69 99 -48
138 -53 221 -28 27 9 62 13 77 9 36 -7 68 -49 68 -88 0 -41 22 -71 44 -63 21
8 36 48 36 99 0 37 -6 47 -63 103 -71 70 -86 106 -94 226 -7 102 -2 119 52
159 25 18 45 37 45 42 0 4 -39 8 -87 8 -94 0 -104 3 -122 37 -22 42 -13 86 34
163 24 41 45 83 45 92 0 20 -29 38 -63 38 -57 0 -69 58 -27 128 20 33 60 45
60 17z m-1271 -151 l20 -26 -24 -36 c-45 -65 -30 -108 48 -141 57 -25 62 -53
17 -96 -35 -34 -38 -50 -9 -66 l21 -11 -21 -22 c-25 -27 -26 -47 -4 -89 34
-66 38 -152 7 -164 -8 -3 -44 9 -80 26 -92 43 -107 41 -176 -25 -54 -51 -59
-54 -79 -41 -21 15 -69 76 -69 88 0 4 9 5 19 2 14 -4 31 7 59 38 38 40 44 43
111 50 44 5 88 17 114 31 39 21 42 27 45 68 3 62 -15 95 -53 95 -27 0 -32 -5
-46 -50 -9 -28 -22 -51 -31 -53 -18 -3 -40 28 -57 80 -7 20 -21 48 -32 62 -22
28 -65 37 -55 11 4 -12 -3 -15 -30 -15 -53 0 -104 25 -105 52 -5 68 14 173 33
184 24 15 98 -101 98 -153 0 -15 8 -25 24 -29 29 -7 55 6 106 53 22 19 52 38
67 42 27 7 28 10 29 77 0 38 1 72 2 77 4 16 32 6 51 -19z m499 5 c39 -14 47
-37 32 -100 -24 -100 1 -199 51 -199 10 0 30 -10 45 -23 21 -19 27 -33 28 -67
l1 -44 -65 -27 c-37 -16 -66 -35 -68 -44 -2 -9 7 -37 20 -61 20 -39 21 -46 8
-54 -22 -14 -46 -12 -60 5 -19 23 -45 18 -58 -10 -13 -29 -22 -30 -62 -10 -45
23 -53 49 -61 186 -7 133 -16 161 -69 229 -15 19 -35 50 -44 67 -16 31 -15 34
3 52 11 11 33 27 50 35 16 9 38 26 48 39 10 13 25 26 33 30 26 10 136 7 168
-4z m2716 -98 c10 -11 21 -40 23 -65 7 -62 -22 -91 -101 -101 -74 -10 -106 4
-106 44 0 35 51 106 99 138 36 24 51 21 85 -16z m-2264 -48 c16 -20 20 -36 16
-58 -21 -103 -19 -119 13 -149 29 -28 32 -29 70 -16 22 7 51 10 65 6 29 -7 36
13 12 33 -20 17 -30 66 -18 88 9 15 12 12 26 -21 9 -21 16 -40 16 -42 0 -15
55 -84 77 -95 36 -19 53 -66 53 -142 0 -82 -20 -110 -90 -127 -70 -17 -103 4
-153 95 -63 115 -80 124 -158 83 -38 -20 -44 -20 -68 -7 -36 21 -37 47 -2 128
17 38 31 72 31 75 0 3 -11 6 -25 6 -29 0 -33 22 -12 73 39 92 105 123 147 70z
m2669 1 c44 -56 53 -163 17 -203 -22 -24 -20 -77 4 -116 19 -31 46 -47 100
-59 34 -7 99 -75 114 -120 7 -20 11 -50 8 -66 -6 -45 -35 -38 -122 26 -86 64
-84 64 -220 15 -95 -34 -170 -41 -170 -16 0 9 16 33 36 53 83 84 117 173 119
307 1 93 7 112 53 173 29 39 35 39 61 6z m679 -36 c30 -30 -5 -214 -48 -253
-15 -14 -31 -17 -75 -13 -65 5 -91 25 -106 81 -13 49 -3 62 47 59 43 -3 59 8
86 62 36 73 67 93 96 64z m482 -57 c14 -28 12 -86 -4 -126 -14 -32 -19 -35
-55 -35 -66 0 -99 48 -70 101 12 23 86 79 105 79 7 0 18 -9 24 -19z m-830
-116 c36 -19 38 -41 7 -85 -45 -68 -127 -90 -127 -34 0 14 5 35 11 47 11 21
69 87 76 87 2 0 17 -7 33 -15z m-740 -96 c5 -70 8 -79 38 -107 24 -23 31 -37
28 -54 -23 -110 -11 -241 25 -270 41 -34 123 -16 194 43 80 66 119 48 55 -26
-22 -25 -40 -50 -40 -55 0 -15 35 -29 57 -24 31 8 63 -13 63 -41 0 -18 -8 -26
-33 -34 -34 -12 -76 -50 -95 -86 -5 -11 -13 -45 -17 -75 -4 -30 -19 -91 -32
-135 -23 -71 -27 -77 -36 -57 -5 12 -16 22 -23 22 -23 0 -34 36 -34 112 0 54
5 83 20 111 19 34 27 87 14 87 -14 0 -53 -27 -98 -67 -31 -28 -58 -43 -75 -43
-27 0 -159 35 -169 45 -10 10 40 53 93 79 65 31 62 15 39 236 -19 180 -31 220
-69 220 -24 0 -26 2 -20 38 14 77 26 110 50 136 43 46 59 32 65 -55z m1510
-27 c0 -4 -14 -24 -30 -44 -42 -51 -58 -93 -66 -174 -6 -63 -10 -72 -44 -104
-21 -19 -56 -45 -80 -58 l-42 -24 4 113 c2 89 6 113 18 117 16 6 51 42 89 93
41 53 151 113 151 81z m315 -56 c43 -18 66 -60 44 -81 -8 -8 -30 -21 -50 -29
-33 -14 -38 -13 -67 4 -17 11 -39 34 -48 51 -16 32 -16 33 6 51 27 22 69 23
115 4z m-826 -19 c30 -12 56 -28 59 -35 5 -16 -63 -45 -89 -37 -20 7 -23 0
-19 -43 1 -14 -8 -33 -20 -44 -17 -16 -21 -27 -16 -52 34 -167 37 -205 20
-242 -12 -26 -30 -42 -56 -53 -21 -9 -38 -23 -38 -30 0 -11 -3 -12 -11 -4 -18
18 -4 40 31 46 29 6 31 9 28 44 -2 31 -7 39 -26 41 -12 2 -34 -6 -48 -17 -34
-26 -54 -26 -82 0 -22 20 -23 27 -21 188 1 111 -2 175 -10 189 -10 20 -9 22
12 22 13 0 38 11 57 25 46 34 149 35 229 2z m-4626 -35 c9 -10 20 -34 23 -53
10 -50 29 -83 66 -114 31 -26 36 -27 110 -22 54 3 95 13 135 32 76 35 142 43
175 21 14 -9 49 -19 77 -23 33 -4 68 -16 94 -34 33 -22 54 -29 94 -29 64 0 91
10 137 50 43 38 80 37 109 -2 24 -32 18 -63 -18 -106 -38 -46 -33 -58 38 -81
83 -28 127 -56 127 -81 0 -11 -16 -45 -36 -75 -46 -69 -42 -89 36 -169 33 -33
67 -75 75 -93 18 -38 17 -154 -2 -160 -6 -2 -21 14 -34 37 -28 49 -54 67 -127
86 -110 29 -143 66 -139 157 2 44 -1 52 -30 78 -52 45 -76 47 -126 7 -23 -19
-50 -37 -59 -41 -24 -9 -48 18 -48 54 0 41 -34 103 -87 160 -61 65 -91 74
-208 60 -106 -12 -116 -10 -168 36 -38 34 -77 42 -95 21 -5 -7 -9 -32 -9 -55
1 -23 -4 -48 -12 -55 -10 -11 -18 -6 -44 23 -18 20 -40 59 -50 85 -21 60 -60
272 -53 291 7 18 30 16 49 -5z m5196 -37 c47 -24 83 -73 79 -109 -3 -28 -7
-31 -41 -34 -32 -3 -43 2 -72 31 -25 25 -35 44 -35 65 0 63 17 74 69 47z m656
-1 c23 -9 47 -61 40 -87 -4 -12 -24 -51 -45 -87 -37 -63 -38 -69 -43 -178 -2
-63 -9 -118 -15 -124 -14 -14 -78 1 -120 30 -25 17 -49 25 -75 24 -52 -2 -77
25 -77 82 0 48 29 96 59 96 9 0 32 13 51 30 19 16 47 29 62 30 33 0 104 77
114 123 6 32 21 67 29 67 2 0 11 -3 20 -6z m-6331 -180 c21 -8 21 -84 1 -124
-12 -23 -23 -30 -44 -30 -43 0 -60 9 -77 42 -13 25 -13 35 -3 59 18 45 77 71
123 53z m227 -68 c13 -27 -3 -66 -26 -66 -20 0 -19 -29 2 -52 18 -20 73 -24
91 -6 7 7 12 25 12 40 0 22 6 31 27 39 49 18 53 9 53 -110 0 -63 4 -112 10
-116 6 -4 35 5 66 19 70 32 117 34 138 5 13 -20 13 -25 -1 -53 -23 -45 -137
-155 -172 -167 -22 -8 -33 -19 -36 -37 -17 -86 -29 -121 -54 -152 -80 -100
-103 28 -26 143 19 28 35 57 35 64 0 14 -43 29 -131 43 -91 16 -93 18 -90 89
2 48 -2 66 -19 89 -11 15 -23 44 -26 63 -6 32 -1 41 40 88 25 28 46 57 46 64
0 17 20 37 37 37 7 0 18 -11 24 -24z m5445 -1 c26 -40 21 -102 -15 -177 -23
-47 -31 -77 -29 -105 3 -36 5 -38 38 -38 32 0 35 2 35 31 1 55 67 127 81 89 9
-23 -3 -116 -27 -213 -11 -46 -18 -90 -15 -97 3 -8 26 -20 51 -26 57 -14 95
-56 95 -105 0 -44 -28 -72 -80 -80 -108 -17 -47 -114 72 -114 14 0 40 11 56
25 53 45 161 53 174 13 3 -7 -4 -32 -14 -56 -33 -74 -2 -94 69 -47 47 33 72
29 97 -14 25 -44 56 -172 56 -237 0 -48 -3 -55 -40 -88 -22 -20 -49 -36 -60
-36 -26 0 -70 66 -70 105 0 35 -15 55 -41 55 -19 0 -24 11 -34 77 -10 62 -42
104 -104 136 -60 30 -128 36 -171 14 -40 -20 -30 -38 28 -53 60 -16 157 -61
173 -81 9 -10 6 -25 -9 -61 -11 -26 -23 -64 -26 -85 -6 -38 -49 -110 -80 -137
-13 -10 -40 -11 -118 -6 -55 3 -111 9 -124 12 -33 8 -40 35 -13 56 l21 18 -36
15 c-20 9 -56 18 -81 22 -40 5 -47 3 -72 -24 -16 -17 -37 -46 -48 -66 -27 -51
-13 -62 80 -62 77 0 86 -4 60 -25 -21 -17 -36 -81 -29 -119 9 -44 36 -40 64
12 29 53 57 76 92 77 30 0 38 -9 47 -54 10 -45 37 -45 73 -2 18 22 38 36 52
36 13 0 51 18 86 41 45 29 71 39 93 37 56 -6 90 -86 53 -127 -9 -9 -16 -27
-16 -37 0 -18 -5 -20 -58 -16 -108 8 -226 -37 -286 -108 -31 -38 -30 -64 3
-68 18 -3 35 9 72 48 30 33 54 50 63 47 21 -8 76 -107 76 -138 0 -14 -5 -30
-12 -37 -27 -27 23 -79 94 -96 52 -12 58 8 58 185 0 135 2 159 15 159 8 0 40
14 70 31 57 32 59 31 67 -16 5 -31 49 -31 78 0 22 24 25 35 24 96 -2 65 0 70
19 67 14 -2 24 -15 32 -43 11 -40 11 -40 56 -37 93 7 123 -64 54 -123 -23 -19
-36 -37 -33 -46 3 -8 33 -19 72 -27 85 -16 244 -67 273 -87 22 -15 22 -17 7
-56 -9 -22 -14 -42 -11 -45 3 -3 22 3 44 14 21 11 57 25 80 32 38 12 45 11 63
-5 36 -33 26 -73 -31 -126 -63 -58 -65 -90 -6 -100 41 -6 77 -35 108 -86 l20
-32 -40 -51 c-23 -29 -41 -58 -41 -65 0 -30 -22 -24 -58 16 -32 34 -46 42 -77
43 -34 1 -39 -2 -49 -32 -7 -19 -19 -38 -29 -43 -9 -6 -26 -28 -38 -50 l-20
-40 -69 7 -70 7 0 -35 c0 -42 -22 -66 -40 -46 -6 7 -20 28 -30 45 -11 18 -42
49 -70 69 -27 20 -50 40 -50 46 0 6 17 31 38 57 52 62 55 73 37 141 -8 32 -13
65 -10 73 4 9 -15 28 -59 56 -35 23 -67 49 -70 57 -3 8 -3 54 0 102 8 103 -8
148 -54 158 -15 3 -33 8 -41 10 -8 3 -29 -1 -48 -7 -29 -9 -34 -15 -31 -37 2
-22 8 -27 33 -28 50 -1 53 -3 75 -39 32 -52 24 -96 -20 -117 -19 -9 -48 -20
-65 -25 -49 -14 -44 -44 14 -94 28 -24 79 -60 113 -79 55 -31 63 -40 66 -68 3
-25 -4 -39 -28 -63 -28 -28 -36 -31 -79 -27 -60 6 -121 35 -185 88 -57 48 -96
51 -106 10 -9 -36 -64 -70 -116 -70 -55 0 -75 19 -67 64 4 29 1 38 -26 62 -17
15 -36 42 -43 61 -7 18 -18 33 -26 33 -23 0 -84 -145 -80 -191 3 -39 5 -41 53
-57 69 -24 305 -179 305 -201 0 -4 -20 -30 -44 -59 -35 -41 -45 -62 -51 -104
-4 -29 -12 -58 -17 -65 -5 -6 -34 -15 -64 -19 -30 -3 -61 -13 -69 -20 -11 -12
-17 -10 -34 12 -27 34 -27 78 0 189 25 107 23 159 -7 163 -18 3 -24 -6 -39
-60 -22 -78 -49 -134 -70 -142 -35 -13 -95 -6 -115 14 -22 22 -23 25 -24 95
-1 44 -3 50 -21 47 -11 -2 -26 -11 -32 -20 -18 -22 -16 -97 3 -138 20 -42 156
-162 192 -170 43 -9 56 -18 77 -58 13 -25 29 -39 48 -43 38 -8 43 -20 18 -54
-11 -15 -21 -33 -21 -39 0 -12 28 -25 86 -40 45 -11 68 -32 77 -69 5 -19 -1
-31 -27 -55 -36 -33 -50 -64 -38 -81 17 -24 175 -95 275 -124 123 -35 150 -50
167 -91 28 -69 -52 -96 -135 -45 -43 26 -84 31 -115 15 -11 -6 -38 -38 -61
-73 -51 -76 -64 -87 -105 -87 -18 0 -36 -4 -39 -10 -3 -5 -13 -10 -20 -10 -11
0 -15 22 -17 103 l-3 102 -41 -3 c-27 -2 -45 2 -54 13 -19 22 -46 18 -64 -10
-43 -65 -102 -51 -130 31 -18 54 -42 84 -65 84 -9 0 -50 -16 -91 -36 -47 -22
-76 -31 -78 -24 -2 6 -14 15 -27 20 -28 11 -35 44 -35 166 l0 94 68 0 c40 0
73 5 80 12 7 7 12 36 12 65 0 34 7 68 20 93 30 59 27 66 -37 78 -87 17 -221
32 -281 32 -29 0 -62 4 -72 10 -23 12 -37 53 -46 130 -4 33 -12 67 -19 76 -23
33 -35 5 -35 -84 0 -78 -3 -93 -32 -150 -25 -49 -30 -66 -22 -80 18 -27 48
-25 110 7 64 35 96 38 154 15 31 -12 42 -24 48 -48 8 -27 13 -31 40 -28 18 1
32 -2 32 -8 0 -5 -27 -39 -59 -75 -74 -81 -104 -153 -105 -247 -1 -59 2 -70
25 -95 15 -15 38 -47 53 -70 22 -37 31 -43 60 -43 26 0 46 11 86 47 l51 46 27
-27 27 -27 -24 -20 c-13 -10 -61 -30 -106 -44 -46 -14 -88 -32 -95 -40 -17
-20 -4 -51 32 -76 32 -23 33 -33 7 -97 -12 -29 -12 -35 2 -43 9 -5 20 -25 24
-46 4 -21 18 -47 31 -60 27 -25 31 -43 9 -43 -21 0 -65 70 -65 103 0 28 -2 28
-47 27 -72 -3 -73 -2 -73 31 0 67 -42 89 -93 49 -21 -17 -26 -18 -31 -5 -3 9
-26 24 -52 35 l-46 20 7 49 c9 68 0 94 -31 88 -28 -5 -28 -6 -10 37 7 18 41
56 75 86 67 59 83 97 59 147 -20 42 -50 37 -60 -10 -4 -21 -12 -46 -18 -56
-23 -44 -140 -69 -158 -33 -5 9 -13 38 -16 65 -9 56 -10 57 -126 22 -143 -43
-176 -32 -160 53 10 56 1 59 -90 37 -108 -26 -145 -14 -184 63 -20 38 -27 39
-69 9 -37 -28 -226 -70 -270 -60 -47 10 -67 46 -67 122 0 69 -10 91 -42 91
-12 0 -20 13 -28 43 -6 23 -27 82 -47 130 -30 73 -36 101 -37 165 -2 107 -24
147 -102 187 -59 30 -59 30 -62 80 -2 28 1 67 8 87 9 32 16 38 48 44 20 3 68
12 106 19 108 20 146 -2 146 -80 0 -45 -21 -88 -71 -142 -22 -24 -39 -46 -39
-50 1 -15 110 -95 144 -107 77 -26 89 -67 52 -171 -13 -38 -22 -73 -20 -77 10
-16 55 -7 135 28 46 19 86 37 88 40 3 2 -9 19 -26 37 -33 35 -63 87 -63 111 0
9 16 19 39 26 67 18 137 125 129 196 -3 28 -4 29 -70 32 -61 3 -69 6 -92 33
-30 35 -32 55 -11 123 22 72 8 90 -90 111 -118 26 -169 81 -141 149 16 38 57
66 134 91 29 9 51 19 49 22 -3 2 -31 11 -64 20 -85 22 -93 32 -93 118 0 123
40 209 107 229 30 9 76 -16 110 -60 30 -38 78 -68 93 -59 14 9 12 51 -5 115
-19 72 -19 119 0 126 41 16 105 -28 105 -71 0 -28 -4 -30 95 30 22 14 53 25
68 25 57 0 117 -48 117 -93 0 -55 -89 -186 -140 -207 -38 -16 -132 0 -172 30
-15 11 -34 20 -43 20 -20 0 -19 -37 1 -48 23 -13 11 -93 -18 -118 -62 -57 -85
-193 -42 -251 23 -31 67 -42 90 -22 18 15 11 39 -28 101 -24 38 -27 51 -18 67
14 27 42 41 82 41 59 0 75 -20 83 -105 4 -41 11 -78 17 -81 5 -3 27 8 49 25
55 45 104 64 129 51 26 -14 41 -71 29 -114 -11 -41 -28 -56 -72 -65 -40 -8
-48 -38 -17 -61 30 -23 31 -125 1 -176 -30 -50 -27 -62 22 -75 82 -22 82 -22
78 -70 -3 -52 -11 -58 -71 -57 -62 2 -140 -26 -186 -66 l-39 -34 -3 -98 c-3
-115 2 -112 49 23 31 89 34 93 68 103 58 16 95 12 131 -15 42 -31 66 -31 154
0 53 18 75 21 90 13 49 -26 198 24 281 95 22 19 50 39 63 46 35 19 58 -8 84
-98 33 -111 116 -188 146 -135 16 28 2 52 -49 89 -27 19 -49 41 -49 48 0 8 11
24 24 36 14 13 30 36 36 51 10 23 20 29 58 35 60 9 94 27 162 85 46 40 64 48
110 54 94 12 120 24 120 55 0 30 -16 51 -40 51 -23 0 -59 41 -70 79 -7 25 -5
44 10 82 11 27 20 56 20 64 0 25 -23 17 -51 -16 l-25 -31 -31 26 c-38 32 -78
47 -100 39 -11 -5 -14 -3 -8 6 4 8 -1 25 -14 42 -28 38 -27 84 4 114 30 31 41
31 117 0 70 -28 96 -31 104 -11 6 16 -19 71 -38 82 -6 4 -56 11 -111 15 -116
9 -133 18 -182 95 -20 30 -40 52 -46 48 -6 -3 -8 -13 -4 -22 9 -24 -13 -78
-38 -90 -12 -6 -41 -13 -65 -15 -24 -3 -46 -8 -50 -12 -15 -14 19 -39 93 -69
l80 -31 37 -76 c24 -52 50 -87 76 -109 22 -18 42 -43 45 -59 3 -14 20 -44 37
-66 26 -33 31 -46 26 -75 -7 -45 -73 -141 -109 -158 -24 -12 -33 -11 -71 7
-26 13 -50 34 -60 54 -17 31 -17 33 7 82 25 51 53 152 44 161 -2 2 -50 0 -107
-5 -56 -5 -107 -8 -113 -6 -7 2 -24 6 -39 9 -15 4 -43 20 -63 37 l-34 31 54
109 c30 60 55 117 55 128 0 13 -9 20 -36 24 -20 3 -51 18 -69 32 -19 14 -41
25 -50 25 -11 0 -14 6 -9 25 5 21 -2 32 -39 68 -28 25 -49 56 -55 77 l-9 35
-61 -2 -62 -3 0 31 c0 95 44 161 116 175 48 9 67 -11 70 -75 2 -57 40 -134 67
-139 10 -2 28 5 39 15 12 10 35 18 57 18 34 0 36 2 34 30 -3 38 -44 75 -85 75
l-31 0 7 78 c4 45 3 89 -3 104 -9 23 -13 25 -43 19 -18 -4 -47 -15 -65 -24
-75 -40 -133 -11 -133 65 0 61 14 82 104 153 47 37 88 77 92 87 4 13 -2 28
-18 45 -19 20 -23 35 -22 80 0 48 4 59 28 79 33 29 91 33 105 7 5 -10 11 -94
14 -188 6 -180 13 -214 53 -256 14 -15 37 -58 51 -95 32 -90 66 -134 101 -134
15 0 51 9 81 21 41 15 72 19 130 17 86 -3 99 9 62 59 -34 47 -56 266 -31 313
5 10 30 26 55 35 55 22 98 8 113 -34 10 -29 -5 -82 -28 -96 -16 -10 -31 -52
-24 -70 13 -34 112 -4 133 41 16 35 14 134 -4 164 -8 14 -17 30 -21 37 -3 7 4
26 15 42 29 40 26 57 -14 95 -40 38 -43 50 -16 72 66 56 81 74 81 98 0 22 -5
26 -28 26 -51 0 -94 68 -108 168 -5 41 -2 59 16 98 26 53 130 164 154 164 8 0
23 -11 32 -25z m-2183 -105 c-3 -24 -12 -59 -19 -77 -8 -18 -14 -46 -14 -62 0
-38 29 -54 120 -71 70 -13 124 -32 134 -48 3 -5 12 -41 20 -78 11 -54 12 -65
2 -51 -16 21 -36 22 -36 2 0 -37 -109 -46 -179 -15 -49 23 -87 25 -142 8 -37
-10 -42 -9 -101 28 -56 35 -70 39 -131 40 -60 1 -71 4 -97 29 -17 16 -30 36
-30 44 0 8 20 36 44 61 24 25 53 61 63 80 22 42 100 85 133 75 24 -8 60 -76
60 -115 0 -14 -9 -45 -20 -69 -27 -59 -26 -81 4 -81 38 0 74 36 91 92 20 67
19 112 -2 171 l-17 47 54 56 55 55 7 -38 c4 -21 4 -58 1 -83z m-2691 -52 c10
-5 27 -26 38 -48 26 -51 52 -67 120 -76 80 -10 110 -28 110 -66 0 -14 -8 -18
-33 -18 -18 0 -70 -9 -116 -21 -71 -18 -89 -19 -132 -9 -60 15 -69 29 -69 113
0 51 -4 67 -20 82 -20 18 -26 46 -13 59 8 8 91 -3 115 -16z m4397 -15 c6 -21
11 -61 11 -89 0 -29 5 -56 13 -62 6 -5 40 -13 74 -17 97 -11 144 -64 95 -108
-30 -28 -114 -60 -161 -62 -50 -2 -53 -7 -85 -117 -9 -32 -29 -71 -43 -88
l-26 -31 -39 38 c-22 21 -53 55 -70 76 l-30 37 65 69 c68 73 86 106 68 124 -8
8 -26 4 -65 -12 -62 -25 -160 -39 -170 -23 -9 15 28 96 55 121 14 13 36 21 58
21 19 0 43 7 53 17 17 15 18 15 18 -15 0 -32 22 -62 44 -62 20 0 34 21 41 65
23 138 72 199 94 118z m-5240 -49 c37 -48 28 -67 -67 -128 -69 -46 -68 -97 3
-166 34 -33 36 -33 115 -31 108 2 120 -5 120 -74 0 -51 3 -58 39 -94 44 -44
105 -66 157 -56 18 3 62 19 98 35 35 16 82 32 103 35 52 8 117 -15 121 -43 4
-24 -43 -136 -64 -153 -19 -16 -17 -46 4 -58 9 -5 39 -12 67 -16 62 -10 111
-30 148 -61 35 -30 67 -32 67 -4 0 11 -12 42 -27 69 l-27 48 25 39 c31 47 41
75 31 90 -4 6 -31 23 -60 39 -56 31 -190 163 -217 215 -29 56 -5 100 47 87 18
-5 32 -21 48 -54 23 -50 45 -72 71 -73 22 0 53 -38 73 -90 26 -66 31 -70 101
-70 92 0 98 -12 52 -106 -43 -87 -47 -117 -15 -112 14 2 32 21 51 53 45 76 51
78 103 33 49 -44 75 -101 62 -139 -9 -28 -89 -109 -107 -109 -4 0 -29 9 -54
20 -25 11 -52 17 -61 14 -9 -3 -23 -30 -32 -60 -21 -72 -35 -78 -125 -58 -44
10 -100 15 -149 12 -128 -5 -132 -33 -15 -104 70 -43 97 -71 73 -78 -7 -2 -32
-9 -56 -15 -36 -10 -49 -21 -76 -64 -46 -71 -60 -81 -117 -81 -37 0 -54 6 -74
24 -38 35 -34 82 14 162 22 36 43 77 46 91 10 37 -10 67 -43 67 -39 0 -52 -17
-52 -67 0 -36 -3 -41 -17 -36 -31 11 -53 35 -53 59 0 48 -64 79 -111 53 -11
-5 -29 -7 -40 -4 -29 9 -66 96 -74 170 -10 92 -9 91 -104 76 -65 -11 -84 -11
-96 -1 -26 22 -17 58 26 105 61 66 43 111 -37 91 -31 -8 -70 -68 -84 -131 -15
-67 -24 -75 -86 -75 -82 0 -103 33 -64 100 46 79 90 176 90 197 0 37 -32 28
-73 -22 -31 -37 -44 -45 -71 -45 -45 0 -64 25 -72 93 -5 44 -3 62 10 82 20 30
17 64 -15 167 -10 34 -17 64 -14 66 2 2 44 -5 93 -17 106 -25 169 -27 200 -5
12 8 47 46 78 85 60 76 70 78 113 23z m4579 -29 c61 -18 88 -45 103 -98 15
-56 4 -75 -59 -105 -66 -32 -74 -46 -33 -60 39 -14 61 -58 61 -125 0 -69 -21
-129 -63 -181 -35 -43 -55 -76 -83 -139 -10 -23 -25 -39 -40 -43 -13 -3 -45
-21 -71 -40 -54 -38 -100 -44 -159 -19 -32 13 -36 18 -30 42 4 16 9 45 13 66
5 32 9 37 33 37 34 0 46 14 55 63 8 41 16 44 68 22 59 -24 112 -20 136 12 49
62 64 192 26 233 -33 36 -44 92 -45 216 0 66 3 124 7 127 10 10 24 9 81 -8z
m-378 -198 c14 -40 23 -98 27 -162 5 -92 4 -102 -17 -127 -12 -16 -31 -28 -45
-28 -24 0 -78 53 -89 88 -4 11 7 55 24 101 35 97 36 106 10 128 -27 24 -25 34
12 60 40 28 50 21 78 -60z m-2890 50 c82 -12 84 -13 91 -42 3 -16 16 -46 27
-65 14 -21 22 -52 22 -77 0 -40 2 -43 28 -45 43 -3 55 -2 95 5 30 5 37 3 37
-11 0 -9 9 -28 20 -42 26 -34 25 -48 -11 -95 -60 -79 -142 -105 -227 -70 -45
19 -122 93 -164 158 -22 34 -36 47 -54 47 -13 0 -24 5 -24 10 0 6 16 10 35 10
33 0 35 2 35 35 0 37 -19 82 -51 124 -11 13 -19 32 -19 42 0 31 28 34 160 16z
m-234 -61 c38 -38 44 -77 20 -125 -12 -22 -64 -59 -70 -49 -1 2 -8 43 -15 91
-9 68 -9 92 0 103 17 21 27 18 65 -20z m2161 -68 c52 -58 51 -69 -16 -183 -23
-38 -41 -78 -41 -88 0 -22 38 -37 94 -37 55 0 70 -17 63 -71 -7 -54 -39 -86
-103 -105 -91 -26 -94 -53 -11 -100 34 -19 59 -43 72 -67 19 -36 19 -39 2 -51
-41 -31 -235 -27 -274 5 -17 15 -16 57 2 89 8 14 14 35 15 48 0 29 -23 29 -94
-4 -50 -23 -60 -24 -92 -14 -24 8 -40 22 -51 46 -16 32 -15 36 0 67 10 17 29
47 42 66 14 19 25 38 25 42 0 19 -47 31 -148 36 -59 3 -113 10 -120 16 -32 25
18 120 79 149 25 12 39 14 63 6 48 -16 97 -57 112 -94 11 -26 20 -33 46 -36
26 -2 39 -13 68 -56 36 -55 75 -76 92 -51 14 21 3 107 -17 128 -23 26 -12 41
30 41 50 0 65 28 65 120 0 84 16 120 54 120 12 0 32 -10 43 -22z m282 -82 c14
-15 25 -42 28 -68 4 -41 2 -46 -55 -108 l-60 -66 54 -28 c114 -60 135 -113 60
-150 -38 -19 -147 -28 -161 -14 -3 3 1 31 10 62 27 93 23 157 -14 212 -17 26
-31 54 -31 61 0 24 28 70 60 97 40 33 79 33 109 2z m896 10 c59 -25 75 -97 30
-141 -27 -28 -45 -31 -78 -14 -33 18 -37 28 -37 102 0 65 1 67 25 67 14 0 41
-6 60 -14z m1042 -18 c46 -43 30 -63 -68 -88 -58 -15 -115 -60 -122 -97 -3
-16 -1 -79 5 -140 12 -133 5 -152 -69 -185 -86 -38 -110 -12 -101 111 6 80 37
151 100 228 24 29 57 73 73 100 25 39 37 49 72 58 23 5 48 16 55 23 17 17 28
15 55 -10z m-1709 -25 c6 -16 13 -44 16 -63 14 -85 70 -125 111 -80 22 25 32
25 39 3 8 -28 17 -99 10 -85 -8 17 -31 15 -42 -3 -4 -9 -30 -21 -57 -28 -43
-10 -50 -16 -57 -44 -11 -43 -31 -42 -78 5 -55 54 -64 97 -43 201 17 87 37
121 72 121 11 0 23 -11 29 -27z m-1595 -87 c18 -7 61 -37 95 -65 35 -29 70
-51 79 -49 20 4 113 -92 113 -116 0 -9 -11 -44 -25 -78 -32 -79 -32 -132 0
-180 34 -50 95 -72 179 -66 76 6 93 -2 102 -47 13 -70 -36 -125 -110 -125 -74
0 -197 75 -222 137 -17 38 -39 42 -118 18 -133 -41 -184 58 -107 206 17 33 31
64 31 70 0 7 -16 29 -36 51 -47 53 -64 95 -64 163 0 42 5 60 20 75 24 24 22
24 63 6z m-331 -173 c40 -47 28 -96 -38 -164 -62 -63 -59 -94 9 -127 26 -12
47 -29 47 -36 0 -8 -12 -38 -27 -67 -25 -48 -28 -63 -28 -159 0 -141 11 -160
93 -160 55 1 177 22 188 33 3 3 -9 13 -28 22 -104 53 -161 163 -103 201 21 14
30 14 55 4 38 -16 60 -46 60 -80 0 -26 32 -70 50 -70 5 0 18 -10 30 -22 33
-36 27 -108 -16 -195 -24 -49 -34 -83 -32 -105 3 -30 7 -34 75 -59 39 -14 79
-34 88 -43 24 -24 47 -20 98 19 59 45 87 85 87 126 0 26 -12 45 -64 99 -64 66
-88 112 -69 131 5 5 63 15 128 21 l117 12 23 -26 c53 -62 35 -156 -37 -191
-43 -21 -46 -33 -19 -85 10 -20 24 -56 30 -80 7 -26 22 -48 38 -59 25 -17 26
-16 49 11 17 19 24 39 24 69 0 55 9 84 27 91 17 7 61 -14 86 -42 19 -21 20
-30 11 -103 -5 -39 -2 -50 19 -74 23 -28 27 -29 105 -26 71 2 83 -1 107 -22
26 -22 27 -26 26 -114 -1 -58 3 -94 10 -98 18 -11 69 45 69 76 0 15 -4 31 -10
34 -23 14 -7 23 31 18 l42 -6 -37 65 c-46 82 -46 103 -1 51 47 -55 88 -69 146
-49 24 9 47 16 51 16 4 0 12 -19 18 -41 10 -35 8 -58 -11 -140 -18 -80 -20
-104 -11 -125 11 -24 15 -25 71 -18 68 7 93 -3 121 -49 39 -63 16 -121 -71
-184 l-52 -37 68 -23 c84 -28 115 -55 115 -100 0 -48 -54 -103 -153 -153 -45
-23 -103 -62 -129 -86 -42 -39 -52 -44 -95 -44 -57 0 -105 26 -127 69 -18 33
-20 30 66 81 57 34 74 53 62 72 -7 11 -30 7 -89 -16 -45 -17 -141 -21 -150 -6
-12 19 -25 10 -55 -39 -35 -57 -75 -79 -112 -61 -12 6 -42 33 -65 58 -38 42
-42 45 -49 27 -30 -84 -30 -85 -77 -85 -24 0 -69 -5 -98 -10 -51 -10 -55 -9
-76 14 -50 58 -34 179 34 254 49 54 84 63 113 29 23 -26 166 -84 178 -73 3 4
-6 30 -22 58 -37 65 -41 143 -10 185 21 29 37 38 112 69 30 12 42 23 42 37 0
11 -36 60 -81 108 -44 49 -91 108 -103 131 -34 67 -76 83 -214 83 -88 -1 -115
-4 -123 -15 -19 -31 -5 -45 49 -50 48 -5 57 -11 115 -68 60 -59 66 -63 106
-61 28 2 45 -2 52 -12 29 -46 0 -197 -43 -220 -27 -15 -60 9 -105 76 -26 40
-42 55 -58 55 -29 0 -35 -17 -35 -94 0 -58 -2 -62 -27 -73 -16 -7 -36 -18 -45
-25 -15 -11 -26 -3 -85 53 -37 36 -81 74 -98 85 -41 26 -45 32 -45 86 0 58 11
88 44 121 29 30 32 55 11 96 -17 33 -33 41 -85 41 -42 0 -65 -19 -56 -48 9
-29 -2 -49 -34 -61 -35 -12 -68 -5 -98 22 -26 24 -46 88 -37 120 4 12 9 30 11
40 8 25 -22 22 -40 -5 -12 -16 -16 -47 -16 -113 0 -99 -7 -115 -51 -115 -50 0
-101 86 -84 142 4 13 19 32 33 44 14 11 22 26 19 31 -4 6 -40 29 -80 51 -83
46 -97 60 -126 125 -11 27 -32 62 -45 78 -13 15 -27 42 -31 59 -5 23 -12 30
-31 30 -49 0 -103 -82 -105 -157 0 -34 -2 -36 -12 -19 -20 33 -69 86 -86 96
-10 5 -23 5 -32 0 -12 -8 -12 -13 -1 -31 19 -30 6 -39 -76 -51 -62 -10 -74 -9
-97 6 -28 19 -30 23 -40 78 -12 76 -75 93 -129 34 -34 -38 -72 -56 -114 -56
-45 0 -54 13 -62 91 -7 65 -11 76 -40 99 -37 30 -33 51 12 73 39 19 54 14 158
-58 45 -30 92 -55 104 -55 13 0 50 14 82 30 l59 31 65 -15 c74 -18 143 -20
169 -6 10 5 24 23 31 41 12 28 11 33 -7 48 -11 9 -23 28 -27 44 -9 39 -58 38
-96 -3 l-28 -30 -39 53 c-47 63 -83 72 -93 21 -4 -17 -10 -36 -14 -42 -9 -16
-106 -25 -157 -15 -37 7 -44 13 -47 33 -10 82 198 253 339 280 37 7 60 18 74
35 33 41 140 60 178 32 16 -11 16 -15 2 -59 -31 -90 -8 -139 52 -107 39 21 53
60 53 148 0 79 1 82 36 121 20 22 68 55 106 75 79 39 136 45 160 18z m5652
-14 c63 -29 72 -31 141 -24 99 9 119 -2 110 -58 -17 -110 -17 -160 0 -203 9
-24 23 -44 31 -44 17 0 17 -3 0 -44 -17 -40 -51 -66 -87 -66 -30 0 -69 -34
-111 -98 -29 -44 -69 -62 -92 -43 -7 6 -16 41 -19 77 -10 107 -48 123 -61 26
-8 -63 -20 -80 -43 -66 -27 17 -27 72 -1 123 22 43 33 53 71 65 28 9 23 84 -8
120 l-25 29 30 37 c17 21 30 45 30 54 0 9 -16 36 -35 62 -34 45 -42 64 -28 77
11 12 29 8 97 -24z m-4836 -42 c45 -11 48 -15 64 -63 9 -27 20 -77 23 -111 6
-53 5 -61 -11 -67 -30 -12 -208 -18 -222 -8 -8 5 -18 28 -23 51 -12 52 1 103
36 151 15 20 25 47 25 68 l0 33 30 -21 c17 -12 52 -27 78 -33z m-2630 -100
c30 -14 40 -52 41 -148 1 -44 -3 -58 -15 -63 -25 -9 -62 19 -79 61 l-15 36
-54 -52 c-84 -79 -126 -67 -126 36 0 104 60 159 164 149 32 -3 70 -12 84 -19z
m3680 -79 c7 -7 12 -36 12 -65 0 -30 7 -70 15 -90 8 -19 15 -36 15 -37 0 -2
-18 -27 -40 -56 l-40 -54 0 57 c0 46 -4 61 -21 75 -23 19 -79 127 -79 154 0 9
6 19 13 21 25 10 113 7 125 -5z m-4054 -54 c8 -32 -25 -109 -54 -124 -34 -18
-74 -9 -78 18 -5 36 17 90 54 129 33 34 35 35 53 19 11 -10 22 -29 25 -42z
m3272 -29 c64 -27 74 -96 22 -152 -28 -30 -62 -29 -132 2 -53 23 -55 26 -46
50 22 59 43 87 73 100 40 18 41 18 83 0z m560 -47 c16 -30 21 -111 9 -147 -8
-26 -43 -28 -92 -5 -30 15 -72 60 -62 67 2 2 16 10 30 19 15 9 30 29 34 45 9
37 33 63 51 56 8 -3 22 -19 30 -35z m-3695 -108 c39 -33 79 -60 89 -60 10 0
42 11 72 25 69 32 93 32 115 -2 14 -22 17 -44 15 -115 l-2 -88 36 0 c23 0 58
12 91 30 51 29 54 30 84 15 17 -9 37 -31 45 -50 19 -45 6 -78 -52 -131 -36
-33 -44 -47 -44 -75 0 -51 11 -60 64 -58 70 4 90 -20 94 -117 5 -83 -2 -98
-45 -99 -46 0 -40 -30 16 -86 28 -28 51 -56 51 -63 0 -8 -25 -41 -55 -75 -35
-39 -55 -71 -55 -86 0 -23 4 -25 43 -25 51 0 100 28 127 72 16 27 20 51 20
128 0 79 4 103 23 140 43 86 136 116 208 67 43 -29 48 -61 16 -96 -88 -96 -74
-158 42 -182 64 -12 101 -33 101 -54 0 -17 -39 -35 -76 -35 -16 0 -43 -17 -73
-45 -51 -48 -71 -54 -91 -30 -7 8 -25 15 -41 15 -34 0 -39 -23 -12 -52 16 -18
16 -21 1 -46 -34 -57 -119 -92 -146 -59 -6 6 -14 28 -19 47 -7 28 -14 35 -33
35 -20 0 -27 -9 -45 -60 -11 -33 -26 -69 -33 -80 -10 -18 -11 -18 -12 -2 -1
60 -101 75 -216 32 -96 -36 -129 -33 -153 12 -18 34 -3 69 45 108 34 28 44 43
44 66 0 37 -24 38 -108 4 -107 -43 -117 -36 -134 89 -6 47 -16 94 -24 103 -11
16 -16 17 -46 5 -94 -38 -176 -38 -203 1 -21 30 -20 139 2 184 14 30 15 40 4
67 -23 54 -24 82 -5 100 35 35 100 -2 109 -63 16 -107 28 -144 57 -176 36 -42
80 -55 153 -48 l55 6 0 -30 c0 -17 -12 -47 -26 -68 -35 -51 -22 -61 58 -46
187 36 252 61 292 114 42 55 43 86 6 166 -18 39 -39 71 -46 71 -20 0 -34 -34
-34 -82 l-1 -43 -29 33 c-17 18 -30 41 -30 52 0 24 -47 55 -97 65 -42 8 -76
-12 -99 -58 -21 -40 -54 -77 -70 -77 -18 0 -74 49 -74 66 0 7 18 41 40 75 43
67 60 123 41 142 -8 8 -23 8 -59 -2 -89 -26 -109 -25 -147 3 -26 20 -35 35
-35 56 0 40 28 96 55 110 33 18 70 6 181 -57 134 -77 242 -108 298 -87 24 9
19 52 -9 79 -28 29 -54 31 -96 9 -45 -23 -69 -14 -104 36 -42 61 -118 117
-185 137 -30 9 -59 20 -64 24 -5 5 -4 34 3 71 13 63 33 108 51 108 5 0 41 -27
81 -60z m3494 -5 c17 -16 25 -35 25 -59 0 -23 9 -45 26 -66 25 -30 26 -31 9
-50 -21 -24 -58 -26 -75 -5 -21 25 -54 17 -91 -21 -37 -39 -78 -64 -104 -64
-9 0 -30 13 -46 29 -34 34 -38 78 -12 117 9 14 19 42 22 62 6 35 9 37 51 43
25 4 61 14 80 23 51 22 87 20 115 -9z m3752 -46 c38 -23 72 -47 76 -53 4 -6 6
-33 3 -59 -3 -26 -3 -54 1 -62 7 -20 43 -19 43 0 0 23 50 22 200 -1 127 -20
140 -28 165 -94 32 -83 96 -105 124 -42 l13 27 19 -24 c13 -16 19 -39 19 -76
0 -29 3 -60 6 -69 8 -20 48 -21 64 -1 17 20 8 95 -19 167 -31 81 -55 108 -97
108 -19 0 -34 1 -34 3 1 1 7 25 14 52 17 63 43 70 103 26 23 -17 53 -33 67
-37 13 -3 28 -13 31 -22 18 -45 31 -468 16 -522 -5 -20 -17 -28 -56 -37 -27
-7 -58 -21 -69 -32 -19 -20 -19 -20 7 -60 l27 -40 -22 -16 c-13 -8 -41 -15
-64 -15 -28 0 -46 -6 -59 -20 -10 -11 -23 -20 -28 -20 -17 0 -98 71 -129 114
-24 33 -29 48 -25 79 3 21 13 49 22 63 20 30 33 23 67 -37 25 -44 53 -58 75
-36 19 19 29 133 14 170 -9 23 -16 27 -49 27 -22 0 -68 9 -102 20 -45 14 -90
20 -162 20 -92 0 -100 -2 -105 -21 -6 -20 -6 -20 -29 2 -14 13 -29 40 -36 61
-10 34 -9 40 18 74 65 81 79 120 52 141 -7 6 -39 13 -70 16 -34 3 -89 20 -136
41 -90 41 -101 42 -165 20 -61 -21 -89 -13 -113 31 -17 32 -17 38 -4 62 8 14
26 34 40 44 24 18 166 65 202 68 10 0 48 -18 85 -40z m-3413 -90 c14 -11 26
-25 26 -31 0 -5 14 -44 31 -86 l30 -76 -21 -38 c-15 -26 -23 -66 -29 -132 -11
-135 -28 -148 -128 -101 -57 26 -57 26 -53 97 1 34 -6 63 -26 105 -51 107 -41
216 25 260 44 30 108 31 145 2z m947 5 c8 -10 12 -39 11 -82 -2 -66 -2 -66 42
-112 53 -53 71 -92 56 -121 -6 -10 -15 -19 -20 -19 -6 0 -10 -9 -10 -20 0 -16
7 -20 35 -20 20 0 54 9 76 21 49 24 63 16 81 -45 16 -56 19 -59 93 -95 36 -17
65 -34 65 -39 0 -12 -28 -51 -83 -115 l-50 -59 -34 85 c-60 148 -122 193 -214
152 -49 -23 -46 -38 12 -45 57 -8 86 -24 109 -63 57 -92 -6 -149 -183 -163
l-75 -7 -7 41 c-8 51 10 150 32 175 25 27 29 142 9 247 -8 46 -20 88 -25 93
-6 6 -24 -2 -48 -22 -39 -33 -74 -40 -91 -18 -5 6 -18 38 -27 71 l-17 58 24
25 c25 24 178 93 209 93 9 0 22 -7 30 -16z m-1682 -49 c16 -8 34 -28 39 -45 6
-17 18 -33 27 -36 8 -3 15 -14 15 -24 0 -10 12 -41 26 -68 21 -41 26 -66 28
-131 0 -44 -4 -85 -9 -90 -18 -18 -55 17 -80 74 -20 44 -33 57 -79 83 -30 18
-66 48 -81 69 -25 37 -32 63 -17 63 6 0 24 25 66 93 19 31 26 33 65 12z
m-2356 -95 c34 -27 64 -93 72 -161 17 -142 -31 -159 -104 -37 -12 20 -30 40
-41 43 -23 7 -28 37 -17 90 10 48 32 85 51 85 7 0 25 -9 39 -20z m494 -269
c19 -20 41 -48 49 -63 8 -16 21 -28 29 -28 11 0 12 -5 5 -26 -6 -14 -10 -39
-10 -55 0 -34 3 -33 -66 -13 -31 9 -61 13 -69 10 -25 -9 -175 136 -175 170 0
14 59 51 110 69 40 14 62 3 127 -64z m462 -47 c12 -15 21 -35 21 -45 0 -44
-24 -122 -45 -147 -21 -25 -23 -25 -47 -10 -52 34 -74 129 -43 188 25 48 82
55 114 14z m4669 -378 c17 -10 42 5 42 26 0 38 35 14 67 -47 18 -33 34 -64 36
-69 1 -5 34 12 71 38 78 54 113 57 133 15 11 -22 9 -38 -12 -109 -14 -45 -22
-86 -19 -91 11 -19 37 -7 88 41 l54 51 31 -43 c18 -24 34 -53 38 -66 6 -25
-32 -234 -48 -264 -5 -10 -26 -27 -47 -37 -20 -11 -64 -42 -97 -70 -73 -63
-100 -66 -115 -13 -6 20 -10 64 -8 97 l3 60 60 3 c71 4 85 13 85 58 0 41 -21
54 -87 54 -73 0 -90 -8 -126 -59 -19 -25 -62 -69 -97 -96 -82 -64 -120 -101
-120 -114 0 -20 42 -11 72 14 34 29 73 32 106 9 27 -19 28 -40 3 -78 -32 -49
-99 -87 -145 -84 -33 2 -43 9 -59 36 -20 33 -68 267 -59 290 2 6 12 12 22 12
10 0 28 8 41 18 28 24 20 49 -21 64 -31 10 -50 34 -50 63 0 9 20 35 44 58 l44
43 7 149 8 150 22 -51 c13 -28 27 -54 33 -58z m-4639 34 c25 -27 53 -50 61
-50 8 0 24 12 37 28 l22 27 1 -52 c0 -56 12 -67 36 -35 13 16 13 16 14 -2 0
-21 28 -20 113 5 45 13 48 12 63 -9 8 -12 21 -22 28 -22 21 0 46 -35 62 -86 8
-26 20 -52 27 -56 6 -4 39 -5 72 -2 50 5 64 3 83 -12 25 -20 41 -75 42 -138
l0 -39 -109 6 c-142 7 -179 19 -249 82 -68 62 -91 75 -131 75 -49 0 -42 -42
19 -125 28 -37 50 -73 50 -79 0 -20 -52 -64 -102 -86 -75 -33 -101 -14 -148
113 -23 61 -49 89 -99 106 -62 20 -110 14 -163 -21 -26 -18 -48 -36 -48 -40 0
-4 27 -5 59 -2 55 6 61 5 85 -19 14 -14 26 -33 26 -41 0 -8 -23 -31 -50 -51
-52 -38 -84 -83 -72 -102 4 -5 34 -10 67 -9 45 0 75 -6 120 -27 70 -32 141
-98 150 -138 8 -36 22 -47 64 -51 27 -2 36 -8 42 -29 3 -14 20 -45 38 -69 17
-24 31 -51 31 -61 0 -28 -38 -46 -106 -52 -34 -3 -71 -10 -82 -16 -11 -6 -40
-49 -63 -96 -23 -47 -50 -90 -60 -96 -27 -14 -74 13 -104 61 -34 54 -69 76
-99 62 -35 -16 -39 -53 -15 -124 28 -83 81 -169 150 -244 35 -38 62 -77 68
-100 13 -48 14 -274 1 -330 -13 -55 -1 -91 50 -155 38 -49 41 -57 35 -94 -3
-22 -7 -50 -8 -63 -1 -13 -11 -28 -22 -34 -28 -16 -44 -39 -45 -65 0 -16 -11
-28 -37 -40 -29 -14 -45 -32 -68 -78 -26 -53 -30 -71 -30 -145 0 -81 2 -90 48
-184 26 -54 47 -106 47 -114 0 -8 -11 -30 -25 -48 -32 -42 -32 -66 4 -106 58
-67 130 -240 150 -363 12 -76 -1 -100 -59 -110 -24 -4 -57 -21 -81 -41 -60
-50 -80 -44 -93 28 -8 45 -55 88 -97 88 -70 0 -192 69 -203 115 -4 14 -14 25
-23 25 -13 0 -14 3 -5 12 16 16 15 39 -2 74 -8 16 -19 87 -25 164 -10 144 -27
215 -51 215 -8 0 -17 -13 -21 -30 -18 -74 -33 -238 -30 -325 7 -214 6 -253 -7
-258 -18 -6 -42 59 -58 153 -14 84 -44 523 -44 646 0 65 1 70 17 58 19 -17 83
-146 83 -170 0 -51 38 -67 64 -26 38 59 51 200 23 252 -12 21 -17 54 -17 107
0 108 11 128 51 92 10 -9 25 -14 32 -11 19 7 26 58 37 271 6 100 13 193 18
208 l7 28 30 -18 c46 -28 62 -66 46 -105 -9 -22 -16 -124 -21 -342 -4 -170
-13 -335 -19 -365 -19 -96 -30 -227 -22 -256 9 -35 44 -44 73 -18 19 18 20 18
37 -5 44 -58 66 10 51 154 -14 131 -13 165 5 165 18 0 18 4 0 58 -13 38 -13
52 2 136 15 86 15 107 1 272 -9 98 -14 184 -11 191 21 53 116 -73 130 -172 3
-25 9 -45 13 -45 14 0 33 90 28 133 -3 23 -29 96 -58 162 -37 82 -55 138 -58
175 -3 33 -13 65 -25 81 -13 18 -22 53 -28 106 -4 43 -8 79 -8 81 -1 1 -12 2
-26 2 -45 0 -95 77 -110 167 -7 42 13 103 47 144 22 28 90 69 112 69 49 0 193
106 222 163 29 54 -3 147 -50 147 -27 0 -46 -19 -75 -77 -12 -24 -26 -43 -31
-43 -17 0 -30 38 -30 88 0 51 -9 62 -48 62 -8 0 -48 16 -88 36 -60 30 -84 36
-135 36 -48 0 -66 -4 -81 -20 -24 -24 -34 -91 -18 -122 11 -21 17 -22 74 -16
33 3 78 9 98 12 34 6 38 4 44 -22 8 -33 -10 -132 -36 -191 -30 -69 -96 -96
-178 -73 -50 13 -82 56 -82 108 0 43 -16 72 -39 72 -10 0 -39 -18 -64 -40 -51
-45 -73 -49 -110 -20 -35 27 -51 80 -42 138 6 38 15 55 51 87 24 23 44 46 44
52 0 6 -16 14 -35 17 -90 17 -110 136 -35 219 l28 32 160 3 c142 3 190 -1 294
-24 21 -5 29 -2 34 10 14 37 -85 104 -178 121 -45 9 -114 65 -106 87 4 8 20
18 36 21 16 3 52 25 78 48 56 48 136 89 176 89 26 0 27 -3 34 -61 8 -72 33
-110 61 -93 32 19 53 75 53 144 0 71 21 163 28 123 2 -13 5 -23 8 -23 2 0 23
14 46 30 64 46 100 42 157 -20z m5820 23 c17 -14 23 -35 31 -101 5 -45 17 -95
26 -111 21 -35 14 -68 -23 -112 -53 -63 -147 -86 -218 -52 -31 15 -37 15 -45
3 -21 -33 -7 -88 36 -152 18 -26 27 -56 32 -105 8 -76 8 -76 90 -51 37 11 47
10 70 -3 15 -8 28 -24 30 -36 4 -28 -50 -88 -102 -115 -50 -25 -58 -36 -44
-61 12 -23 14 -89 4 -133 -8 -36 -31 -44 -120 -44 -95 0 -196 44 -196 85 0 8
31 48 69 87 80 86 91 104 91 155 0 58 -22 83 -75 83 -54 0 -75 8 -75 28 0 20
47 82 63 82 6 0 26 -14 43 -31 20 -20 39 -29 48 -26 22 9 20 44 -3 63 -71 61
-71 61 -71 117 0 71 21 92 143 146 116 51 123 60 110 153 -12 90 -7 115 26
133 34 18 35 18 60 -2z m-7605 -197 c69 -80 111 -141 156 -225 86 -163 113
-191 187 -191 51 0 57 12 43 93 -5 32 -7 64 -4 71 7 19 70 46 108 46 59 0 62
-61 11 -169 -19 -40 -35 -80 -35 -88 0 -9 23 -40 50 -69 68 -72 66 -87 -16
-168 -69 -68 -79 -97 -41 -120 15 -9 22 -6 42 17 31 35 63 47 126 47 39 0 49
-3 49 -17 0 -9 6 -24 14 -32 12 -14 11 -24 -11 -78 -41 -98 -20 -117 66 -58
63 44 86 44 107 4 12 -25 21 -30 40 -26 29 5 30 -2 4 -35 -49 -63 -204 -80
-354 -39 -94 26 -125 41 -177 88 -63 57 -64 62 -20 138 22 37 39 79 39 94 -1
15 5 37 11 50 18 33 7 63 -34 89 -45 28 -70 28 -107 -3 -35 -30 -101 -34 -130
-8 -22 20 -24 84 -3 143 30 85 15 99 -78 75 -71 -18 -103 -19 -110 -2 -3 7 6
39 19 72 24 59 30 95 17 95 -5 0 -34 -18 -67 -40 -74 -50 -111 -53 -120 -9 -8
41 -6 267 3 299 5 18 18 29 46 38 22 7 44 17 50 23 5 5 13 8 17 7 4 -2 50 -52
102 -112z m7394 72 c7 -7 12 -20 12 -29 0 -19 -95 -109 -114 -109 -7 0 -23 11
-36 25 -21 22 -22 27 -10 56 23 55 115 90 148 57z m626 -84 c11 -10 16 -34 16
-72 0 -77 15 -128 40 -135 26 -7 26 -47 0 -77 -22 -26 -26 -74 -7 -90 6 -6 27
-20 45 -30 27 -17 32 -25 32 -59 0 -23 -7 -46 -16 -55 -15 -16 -27 -20 -94
-31 -83 -13 -75 -46 17 -66 74 -17 94 -35 99 -89 7 -63 -13 -95 -54 -94 -38 2
-112 48 -164 101 l-38 39 20 39 c12 23 20 59 20 88 0 59 18 95 64 131 35 26
48 65 24 67 -7 1 -24 2 -38 4 -49 3 -70 17 -97 63 -14 26 -28 49 -30 51 -2 3
-16 -7 -31 -21 -36 -34 -65 -48 -99 -48 -59 0 -69 44 -27 120 28 51 75 90 164
135 93 47 130 54 154 29z m-820 -186 c14 -20 13 -25 -7 -61 -25 -45 -132 -154
-159 -163 -30 -9 -48 14 -48 61 0 98 75 184 162 185 27 0 41 -6 52 -22z
m-4980 -169 c66 -61 71 -85 27 -155 -40 -62 -47 -98 -26 -130 9 -14 24 -28 33
-31 49 -17 70 -70 32 -80 -12 -3 -23 -18 -28 -37 -7 -26 -13 -31 -43 -34 -49
-4 -99 29 -99 66 0 16 -20 70 -44 120 -25 50 -48 107 -51 126 -9 46 18 128 57
172 44 49 73 46 142 -17z m316 12 c65 -20 65 -21 91 -80 35 -78 58 -90 200
-100 130 -9 150 -20 125 -68 -22 -44 -62 -66 -113 -64 -41 1 -44 -1 -50 -29
-4 -21 -13 -32 -29 -36 -69 -18 -167 44 -157 98 3 17 -5 47 -21 82 -14 30 -26
59 -26 64 0 15 -26 22 -79 22 -55 0 -101 28 -101 61 0 30 18 59 43 69 24 9 23
10 117 -19z m5289 -93 c30 -107 13 -161 -50 -161 -39 0 -61 26 -53 62 16 68
67 157 84 146 4 -2 13 -24 19 -47z m-870 -53 c37 -42 40 -81 10 -119 -27 -35
-49 -33 -98 8 -23 19 -50 38 -61 41 -11 4 -20 10 -20 14 0 4 22 31 50 60 56
59 64 58 119 -4z m212 -52 c34 -20 35 -26 10 -61 -10 -15 -29 -48 -41 -74 -21
-46 -89 -108 -117 -108 -16 0 -16 5 1 33 8 12 17 51 21 86 12 121 57 165 126
124z m-3123 -81 c6 -15 13 -53 16 -84 6 -54 5 -58 -15 -58 -12 0 -27 8 -34 17
-11 15 -17 15 -84 -1 -39 -9 -75 -14 -81 -11 -28 17 -2 90 48 138 55 53 130
52 150 -1z m2732 -117 c17 -84 -2 -123 -73 -140 -23 -6 -27 -3 -35 29 -21 76
43 209 85 174 6 -5 17 -33 23 -63z m-6684 40 c48 -20 42 -45 -16 -67 -86 -33
-156 -17 -148 32 6 47 93 65 164 35z m4853 -49 c7 -8 17 -41 23 -75 15 -80 -2
-163 -42 -203 -34 -33 -40 -34 -71 -9 -20 16 -23 28 -22 72 1 56 28 139 63
197 22 35 32 39 49 18z m-1619 -72 c0 -41 5 -63 20 -81 23 -29 27 -97 8 -138
-14 -31 -29 -32 -63 -2 l-27 23 17 39 c30 69 35 95 23 120 -12 26 -3 95 12 95
6 0 10 -25 10 -56z m1132 1 c14 -13 33 -52 43 -85 18 -61 18 -61 -4 -107 -17
-35 -20 -55 -15 -88 5 -36 0 -58 -31 -131 -20 -49 -44 -111 -53 -138 -14 -39
-41 -74 -132 -168 -63 -65 -128 -142 -145 -170 -33 -59 -35 -90 -19 -293 8
-97 15 -131 38 -180 16 -33 34 -86 42 -119 8 -32 24 -72 35 -88 24 -32 22 -64
-6 -138 -33 -87 -5 -187 96 -347 34 -52 67 -111 75 -129 8 -19 36 -50 62 -69
62 -46 218 -125 247 -125 64 0 77 -42 20 -66 -48 -20 -88 -18 -119 7 -24 19
-32 20 -66 10 -67 -20 -68 -32 -6 -100 59 -64 66 -87 41 -131 -32 -56 -9 -95
54 -94 52 2 150 50 281 139 63 42 121 80 127 82 7 3 29 -9 48 -26 20 -17 46
-31 58 -31 12 0 53 16 91 35 106 54 162 48 274 -29 80 -54 117 -62 215 -47 45
7 97 19 115 27 29 12 33 17 30 46 -3 30 -6 33 -38 33 -43 1 -91 29 -146 87
-99 103 -164 214 -164 281 0 24 -7 44 -20 57 -11 11 -16 20 -10 20 32 0 40
182 10 248 -19 41 -26 86 -50 313 -5 54 -19 116 -30 140 -25 57 -25 92 1 147
26 52 80 94 160 123 96 35 124 85 81 146 -22 32 -42 94 -42 136 0 42 24 80 64
101 64 34 95 109 60 147 -34 37 -42 206 -11 226 7 4 60 8 119 8 135 1 148 10
90 63 -25 23 -42 48 -42 61 0 34 25 83 58 115 34 32 37 30 62 -49 17 -53 25
-62 84 -92 102 -51 113 -80 34 -85 -45 -3 -53 -6 -53 -23 0 -14 8 -21 27 -23
15 -2 37 -15 49 -30 18 -23 20 -38 17 -107 -3 -76 -2 -80 19 -83 12 -2 44 8
72 22 59 31 61 31 61 10 0 -9 14 -46 30 -84 36 -83 40 -145 9 -184 -11 -14
-29 -26 -39 -26 -25 0 -140 125 -147 161 -6 30 -45 69 -69 69 -7 0 -20 -7 -29
-16 -15 -16 -15 -18 10 -38 35 -28 47 -82 27 -132 -30 -79 -27 -139 13 -236 6
-16 1 -18 -35 -18 -67 0 -80 12 -80 74 0 62 -21 91 -90 126 -54 27 -79 23
-107 -19 -31 -47 -30 -100 4 -154 37 -58 40 -119 13 -258 -47 -249 -99 -425
-144 -484 -53 -70 -71 -147 -46 -195 25 -48 134 -50 227 -4 69 33 99 76 94
132 -1 17 -75 15 -112 -3 l-30 -16 7 28 c4 15 20 65 36 110 19 58 32 126 43
226 14 138 43 278 64 315 9 15 10 15 11 -4 0 -11 8 -28 18 -37 9 -8 29 -27 45
-41 31 -28 34 -54 12 -96 -9 -16 -14 -42 -13 -57 1 -16 -6 -40 -16 -56 -25
-38 -19 -188 9 -231 16 -25 17 -33 7 -72 -15 -57 -15 -136 0 -170 12 -25 15
-26 68 -21 30 3 74 13 97 22 l43 17 -45 52 c-57 65 -69 107 -62 221 7 97 49
394 73 515 21 102 41 134 126 211 66 59 76 73 90 125 10 33 23 68 32 79 13 19
15 19 33 2 11 -9 31 -17 45 -17 22 0 27 6 32 35 5 24 26 56 66 98 l58 62 36
-40 c93 -105 103 -339 16 -375 -54 -22 -71 -68 -96 -257 -19 -148 -38 -232
-64 -283 -11 -21 -20 -58 -20 -82 0 -29 -8 -53 -25 -78 -14 -20 -30 -63 -36
-96 -29 -153 -61 -188 -164 -181 -69 5 -85 1 -85 -19 0 -18 45 -40 100 -49 67
-10 110 -25 110 -38 0 -7 -11 -66 -25 -131 -13 -66 -30 -176 -36 -245 -8 -83
-18 -139 -30 -163 -12 -23 -56 -67 -116 -115 -54 -43 -99 -87 -101 -96 -3 -13
10 -23 44 -38 89 -40 202 -12 267 67 31 37 51 42 78 18 24 -21 46 -20 107 7
50 22 56 22 120 10 133 -26 165 -26 200 4 55 46 47 72 -69 209 -65 77 -76 106
-90 246 -10 92 -9 116 8 195 16 80 22 92 50 111 17 11 55 24 84 27 87 11 108
41 129 191 7 44 17 91 23 105 6 15 13 134 17 271 4 174 10 253 20 273 7 15 16
27 19 27 3 0 32 -29 63 -64 90 -100 160 -122 213 -66 26 27 30 29 39 13 5 -10
9 -71 7 -135 -2 -129 6 -158 44 -158 19 0 28 -9 40 -36 11 -26 19 -34 30 -30
9 3 14 2 11 -3 -4 -5 -30 -12 -59 -16 -28 -4 -60 -12 -70 -17 -25 -13 -44 -61
-52 -133 -7 -70 -39 -185 -65 -235 -22 -43 -54 -72 -102 -95 -81 -37 -41 -115
60 -115 37 0 41 3 75 58 48 77 115 152 150 167 59 25 117 -12 137 -86 8 -31
28 -60 65 -96 43 -44 58 -53 87 -53 62 0 61 37 -4 132 -21 32 -41 71 -44 88
-7 30 44 378 72 500 8 36 23 74 34 84 17 17 22 18 51 6 30 -13 33 -12 53 13
12 15 26 27 30 27 19 0 -5 -114 -43 -210 -23 -56 -41 -116 -41 -132 0 -42 58
-148 81 -148 10 0 20 4 23 9 4 5 15 75 26 156 10 81 24 153 30 160 6 8 12 69
13 147 2 89 7 141 16 157 34 60 36 17 39 -727 4 -797 -4 -1060 -31 -1090 -22
-24 -22 -46 0 -67 26 -27 32 -91 32 -372 l1 -263 -1602 1 c-1884 0 -2770 10
-2794 29 -10 9 -69 16 -181 21 -91 4 -178 11 -194 14 -47 11 -33 25 24 25 87
0 100 7 94 47 -8 47 -24 63 -63 63 -23 0 -37 -6 -44 -20 -10 -20 -12 -19 -44
15 -49 51 -91 46 -102 -12 -5 -24 -14 -37 -31 -44 -13 -5 -93 -9 -176 -10
-174 0 -225 -7 -241 -31 -22 -36 5 -43 147 -38 226 8 250 7 282 -14 26 -17 27
-19 9 -29 -27 -15 -720 -21 -1005 -9 -187 8 -231 13 -253 27 -24 16 -122 44
-153 45 -6 0 -13 -12 -15 -27 -2 -20 -11 -29 -33 -36 -18 -6 -427 -12 -1022
-14 l-993 -5 0 484 0 483 85 69 c100 80 125 112 125 158 0 19 7 59 16 88 l16
54 39 -80 c45 -95 91 -141 185 -185 36 -17 85 -46 110 -65 55 -42 90 -45 105
-8 6 18 6 37 -1 58 -16 47 -78 126 -113 144 -87 46 -184 209 -212 356 -23 126
-75 213 -113 190 -9 -6 -25 -25 -34 -44 -27 -52 -35 -56 -52 -22 -43 82 -70
332 -44 407 10 32 18 41 41 43 45 5 58 -12 41 -53 -30 -73 -9 -155 41 -155 47
0 72 70 100 278 8 63 13 118 10 123 -3 4 1 21 9 37 8 16 31 70 50 121 39 105
68 152 107 175 40 23 56 20 76 -16 13 -26 17 -58 16 -158 -1 -137 4 -157 48
-208 42 -48 37 -77 -15 -78 -45 -1 -53 -11 -62 -84 -10 -77 -11 -357 -1 -367
13 -12 32 20 61 103 15 42 41 98 57 125 53 85 98 378 84 550 -7 100 6 172 32
167 55 -11 96 -218 58 -292 -19 -36 -19 -93 0 -174 21 -87 39 -119 83 -141 80
-41 86 -64 103 -369 19 -342 18 -400 -8 -452 -30 -60 -120 -161 -138 -154 -8
4 -20 -6 -29 -25 -21 -39 -20 -58 2 -65 36 -11 176 -26 238 -26 72 0 104 13
149 60 37 39 92 73 104 65 5 -3 14 2 19 11 8 15 11 15 33 1 13 -9 92 -32 175
-51 138 -33 165 -36 299 -36 l148 0 -7 -51 c-4 -29 -18 -73 -31 -99 -33 -64
-122 -144 -185 -165 -67 -22 -107 -57 -122 -106 -10 -35 -9 -43 9 -66 42 -57
178 -102 211 -70 14 15 14 18 -4 38 -10 12 -37 30 -58 41 -29 15 -36 22 -25
28 8 4 92 26 187 49 95 23 184 46 197 51 24 9 25 8 25 -24 0 -40 12 -51 65
-60 63 -11 73 -15 78 -36 6 -22 36 -26 68 -10 41 22 9 130 -38 130 -38 0 11
45 89 80 85 39 158 21 243 -59 76 -72 125 -94 220 -99 68 -4 84 -1 104 15 29
24 24 47 -27 107 -20 24 -49 60 -65 79 -21 28 -42 41 -93 57 -71 21 -125 26
-152 11 -15 -8 -17 -3 -19 35 -1 28 -20 85 -53 160 -28 64 -49 121 -47 128 11
27 132 47 154 25 30 -30 105 27 147 110 13 25 51 72 85 103 34 31 61 62 61 70
0 21 48 62 107 92 50 25 52 25 58 6 8 -27 -26 -90 -85 -155 -28 -31 -50 -61
-50 -68 0 -8 21 -28 48 -44 26 -17 58 -43 71 -57 l25 -26 -22 -53 c-36 -87
-38 -112 -10 -140 15 -15 47 -30 81 -37 71 -16 105 -4 138 51 13 22 36 60 51
85 47 76 102 85 113 17 12 -74 16 -85 40 -109 50 -50 165 -24 302 68 45 30
108 63 140 72 102 30 131 46 147 81 22 47 20 69 -11 107 -63 75 -156 132 -235
143 -27 4 -82 25 -125 46 l-76 40 -96 -94 c-53 -52 -107 -100 -120 -107 -24
-12 -24 -12 -17 28 3 22 3 48 0 56 -10 27 -70 19 -134 -16 l-59 -33 -33 33
c-22 21 -28 32 -17 32 33 0 118 123 106 154 -3 8 -16 16 -29 18 -26 3 -22 21
5 23 10 1 30 16 45 33 15 17 36 32 47 34 15 2 20 11 20 33 0 26 -5 31 -38 39
-28 7 -50 6 -88 -6 -58 -19 -60 -24 27 78 60 69 127 119 149 110 19 -7 19 -55
1 -161 -13 -75 -19 -137 -17 -177 1 -25 72 -25 94 0 20 22 25 45 36 167 7 74
17 116 36 159 25 53 27 66 21 129 -3 38 -16 91 -27 116 -26 58 -27 147 -2 199
30 61 47 49 53 -36 6 -81 14 -92 71 -92 66 0 77 41 29 117 -28 43 -30 54 -30
140 0 110 -13 121 -50 43 -13 -27 -26 -50 -30 -50 -4 0 -17 82 -29 181 -12
100 -31 213 -41 253 -10 40 -14 75 -10 80 20 21 100 -63 100 -105 0 -48 123
-79 175 -45 29 19 32 45 10 106 -22 62 -19 77 18 96 42 21 39 18 43 56 4 31
77 137 100 145 7 2 14 -14 18 -38 13 -78 75 -163 106 -144 14 9 12 50 -5 92
-17 40 -20 110 -5 133 8 12 15 9 45 -20 19 -19 40 -51 45 -71 10 -36 12 -38
66 -45 46 -5 58 -3 75 12 37 33 52 74 49 134 -1 30 -2 75 -1 100 1 25 3 77 4
116 2 64 4 70 21 66 11 -3 22 2 28 12 7 12 23 16 62 16 43 0 58 -5 78 -25z
m2546 -19 c26 -8 61 -17 77 -21 39 -8 121 -94 133 -137 6 -23 14 -33 27 -31
10 1 25 -8 34 -18 9 -11 54 -39 101 -62 94 -47 109 -70 71 -111 -27 -29 -36
-76 -19 -99 9 -12 37 -21 83 -28 125 -18 146 -34 120 -95 -14 -33 -34 -47 -86
-58 -34 -7 -56 -55 -40 -84 6 -11 40 -34 77 -52 78 -37 98 -69 87 -147 -6 -51
-28 -103 -42 -103 -15 0 -109 78 -121 100 -18 34 -37 23 -43 -25 -13 -90 -77
-172 -116 -148 -45 28 -59 142 -22 189 11 15 21 35 21 46 0 24 15 53 53 101
16 21 27 40 25 42 -2 3 -40 12 -84 21 -90 18 -122 40 -105 72 6 11 20 23 30
27 11 3 23 16 27 27 11 36 -33 65 -111 73 -48 5 -74 14 -93 30 -25 22 -25 23
-10 47 9 14 43 47 75 74 82 69 91 84 50 84 -36 0 -143 -74 -163 -111 -10 -21
-17 -59 -18 -103 -1 -70 -1 -71 27 -74 31 -4 34 -14 11 -33 -22 -18 -35 -54
-44 -127 -14 -106 -72 -184 -117 -156 -39 24 -55 179 -28 271 8 28 14 68 14
89 -2 28 6 51 28 84 17 25 38 67 48 93 19 50 64 97 94 97 9 0 27 7 39 16 42
29 20 104 -27 91 -53 -13 -169 122 -134 156 9 10 18 9 71 -7z m-6838 -44 c19
-15 24 -34 32 -115 13 -125 6 -165 -30 -173 -15 -3 -48 -12 -73 -19 -50 -14
-80 -6 -124 35 -11 10 -45 32 -75 50 -111 64 -152 130 -116 185 23 35 42 31
93 -20 62 -64 86 -62 168 15 69 64 89 71 125 42z m3346 5 c44 -25 123 -93 144
-124 29 -43 50 -116 50 -178 0 -41 -5 -56 -24 -74 -25 -23 -43 -15 -32 14 3 8
-4 23 -15 34 -15 14 -22 36 -26 83 -3 34 -10 71 -15 81 -5 9 -38 36 -73 58
-36 22 -74 53 -86 67 -19 25 -19 27 -3 39 22 16 53 16 80 0z m4224 -20 c15 -8
24 -20 22 -31 -7 -42 52 -61 92 -31 44 33 172 9 200 -38 9 -15 2 -26 -42 -69
-48 -46 -56 -50 -88 -45 -41 7 -57 -15 -30 -41 14 -14 34 -17 121 -14 58 1
105 1 105 -1 0 -2 -9 -29 -20 -61 -23 -68 -72 -160 -106 -201 l-25 -30 7 62
c11 106 -6 134 -59 93 -55 -43 -74 -14 -63 96 6 55 4 65 -10 71 -22 8 -50 -26
-65 -80 -13 -51 -35 -77 -64 -77 -30 0 -35 16 -35 121 0 101 -2 103 -76 70
l-41 -19 5 43 c4 39 1 45 -27 66 -17 12 -31 27 -31 32 0 18 51 78 74 87 32 13
128 11 156 -3z m-5611 -9 c0 -7 -10 -42 -22 -77 -28 -81 -61 -110 -106 -91
-31 12 -61 49 -61 73 0 27 124 106 168 107 12 0 22 -6 21 -12z m4750 -43 c17
-20 31 -46 31 -59 0 -33 -78 -136 -139 -184 -43 -34 -59 -41 -118 -47 -37 -4
-75 -11 -84 -16 -10 -5 -22 -30 -28 -56 -15 -59 -43 -98 -64 -90 -26 10 -30
71 -13 173 23 137 23 140 -25 169 -71 46 -37 68 130 85 63 7 149 22 190 35 42
12 79 23 82 24 4 0 21 -15 38 -34z m-5752 -124 c51 -24 78 -61 69 -97 -7 -27
-48 -74 -65 -74 -5 0 -33 22 -62 48 -43 40 -52 54 -51 81 2 63 35 75 109 42z
m-587 -53 c29 -32 27 -81 -6 -107 -49 -39 -124 -22 -124 27 0 36 25 71 64 88
41 18 42 17 66 -8z m247 -50 c30 -28 32 -94 3 -130 -44 -57 -110 -59 -146 -3
-16 24 -16 27 12 66 28 41 81 89 98 89 6 0 20 -10 33 -22z m1346 -21 c8 -35
11 -37 47 -37 22 0 42 -5 45 -10 9 -15 -22 -116 -53 -173 -45 -84 -112 -118
-112 -57 0 33 -6 37 -60 43 -40 4 -47 20 -49 110 -1 52 2 62 28 88 23 22 39
29 70 29 35 0 41 3 47 25 9 35 27 26 37 -18z m-2198 -62 c49 -48 24 -115 -69
-185 -31 -24 -56 -45 -56 -48 0 -3 27 -33 60 -68 33 -34 60 -69 60 -76 0 -31
-97 -158 -121 -158 -27 0 -34 50 -33 245 2 232 10 268 64 296 46 25 66 24 95
-6z m2768 -25 c25 -27 37 -48 37 -68 0 -26 -30 -128 -45 -152 -5 -9 -56 25
-122 80 -8 7 -13 35 -13 71 0 54 3 64 30 90 37 37 60 33 113 -21z m-2513 -9
c16 -30 12 -112 -8 -150 -26 -52 -61 -75 -96 -61 -26 10 -28 13 -22 49 13 81
70 181 102 181 7 0 18 -9 24 -19z m4764 -74 c23 -172 15 -297 -18 -297 -19 0
-93 56 -112 85 -32 49 9 199 72 262 25 25 28 25 39 9 7 -9 15 -36 19 -59z
m-2486 -70 c9 -10 7 -19 -4 -36 -11 -16 -14 -32 -9 -54 10 -43 10 -117 1 -262
-9 -128 -1 -171 31 -181 33 -10 48 -22 45 -36 -2 -7 -8 -74 -13 -148 -10 -133
-10 -135 -39 -158 -20 -16 -35 -41 -45 -75 -22 -80 -48 -235 -42 -252 9 -23
60 -19 85 8 53 56 77 155 91 368 5 78 15 145 22 157 13 21 38 32 76 32 34 0
36 30 13 147 -29 141 -33 151 -67 155 -27 3 -28 6 -28 53 1 37 7 60 24 83 22
32 24 33 43 15 11 -9 64 -73 118 -140 110 -137 123 -166 122 -278 0 -52 -8
-89 -27 -140 -15 -39 -31 -102 -35 -142 -6 -60 -15 -84 -53 -149 -47 -79 -56
-108 -76 -267 -25 -192 -128 -367 -217 -367 -12 0 -34 -10 -50 -22 -22 -18
-42 -23 -90 -24 -94 -2 -104 -16 -54 -79 38 -48 40 -96 5 -130 -29 -30 -51
-32 -60 -5 -4 11 -5 119 -3 240 3 189 1 221 -13 235 -20 20 -47 10 -55 -21 -9
-37 -37 -47 -95 -35 -124 27 -239 117 -239 189 1 82 77 194 162 236 84 42 98
35 98 -48 0 -65 18 -147 37 -168 24 -26 55 -22 87 11 36 38 33 59 -30 184 -51
102 -72 130 -91 123 -20 -8 -34 28 -40 103 -6 74 8 101 34 66 18 -26 28 -12
48 65 17 66 37 113 60 140 7 8 15 50 17 95 3 72 7 85 40 135 20 30 40 67 44
83 3 15 15 32 26 38 24 13 78 124 78 161 0 17 8 31 21 38 16 9 19 17 14 41 -5
22 -3 29 8 29 8 0 19 -6 25 -13z m-1858 -37 c29 -22 59 -40 66 -40 19 0 64
-71 64 -100 0 -29 -29 -65 -59 -75 -11 -3 -36 1 -56 11 -28 13 -37 25 -45 58
-5 22 -24 67 -41 99 -24 46 -28 61 -19 73 19 21 32 18 90 -26z m-210 -58 c35
-34 60 -67 60 -79 0 -27 -34 -70 -71 -89 -39 -20 -59 -8 -98 58 -17 29 -38 63
-47 75 -16 22 -15 24 19 58 19 19 45 35 56 35 13 0 46 -24 81 -58z m4153 17
c16 -28 18 -49 13 -128 -4 -73 -3 -91 7 -84 73 55 109 90 125 123 l19 39 24
-25 c32 -34 36 -131 15 -316 -17 -142 -14 -171 12 -166 24 5 51 58 62 124 17
94 38 144 62 144 19 0 20 -4 14 -57 -12 -98 -25 -399 -26 -588 -1 -299 -13
-416 -50 -512 -38 -100 -66 -127 -113 -111 -84 29 -224 143 -258 210 -29 57
-39 170 -37 404 l3 211 -42 46 c-110 120 -111 356 0 577 31 63 53 93 86 118
24 18 49 31 55 29 6 -2 19 -19 29 -38z m1000 -60 c0 -35 -5 -98 -10 -139 -6
-61 -11 -75 -27 -78 -10 -2 -23 1 -28 6 -13 13 -12 115 2 161 42 138 66 157
63 50z m-4448 -45 c8 -18 13 -58 12 -92 -1 -46 3 -66 17 -81 22 -24 16 -36
-24 -49 -49 -17 -56 -1 -64 145 -4 70 -9 139 -12 153 -5 23 -3 23 26 -10 17
-19 38 -49 45 -66z m4141 1 c23 -55 17 -156 -16 -291 l-31 -123 20 -53 c10
-29 34 -93 51 -143 l33 -90 -8 -160 c-10 -197 -8 -266 10 -327 17 -57 34 -209
37 -336 l3 -92 -46 0 c-71 0 -128 35 -164 101 -27 50 -30 62 -32 173 -2 90 -8
135 -24 183 l-21 63 31 55 c37 66 38 87 6 157 -28 60 -31 105 -13 208 10 57
10 77 -1 103 -7 18 -19 74 -25 125 -10 80 -16 97 -36 112 -23 18 -24 20 -11
57 8 21 27 68 44 106 24 55 33 66 48 62 45 -15 73 21 93 118 9 38 34 34 52 -8z
m-5103 -125 c9 0 33 14 52 32 30 26 38 29 46 17 12 -19 11 -24 -5 -63 -21 -51
-60 -76 -120 -76 -57 0 -115 28 -117 57 -2 30 3 57 13 76 8 17 13 16 62 -13
30 -16 61 -30 69 -30z m722 6 c35 -71 35 -138 1 -239 -36 -108 -39 -141 -22
-238 22 -126 10 -150 -65 -128 -70 21 -74 34 -60 157 7 59 25 175 42 257 16
83 29 160 29 173 0 24 27 72 40 72 5 0 20 -24 35 -54z m7085 -14 c56 -54 63
-83 29 -126 -26 -34 -58 -33 -91 2 -44 46 -60 111 -38 153 17 31 47 22 100
-29z m-5862 19 c24 -5 51 -15 59 -23 13 -13 13 -20 -1 -53 -9 -21 -37 -66 -62
-101 -63 -89 -69 -111 -50 -178 9 -30 13 -61 10 -70 -14 -37 -136 -45 -164
-11 -27 32 43 145 89 145 32 0 26 27 -18 77 -65 73 -80 192 -28 213 28 11 109
12 165 1z m4819 -257 c8 -22 -26 -294 -48 -383 -10 -40 -32 -97 -49 -126 -19
-33 -36 -83 -44 -129 -9 -52 -22 -89 -42 -117 -35 -50 -35 -71 -10 -283 19
-164 16 -230 -15 -249 -23 -14 -25 -55 -4 -123 8 -27 15 -55 15 -61 0 -16 -27
-17 -69 -2 -25 9 -31 16 -31 40 0 19 -5 29 -15 29 -23 0 -19 78 6 119 l20 34
-21 48 c-20 47 -20 56 -10 203 13 180 18 200 60 260 36 50 49 97 50 176 1 89
26 185 79 299 53 116 71 169 71 218 0 48 43 83 57 47z m861 -30 c46 -32 19
-165 -48 -235 -36 -38 -63 -49 -75 -29 -6 10 57 226 76 263 12 21 18 21 47 1z
m-7944 -50 c9 -8 19 -27 22 -41 11 -43 -3 -205 -23 -262 -35 -104 -50 -64 -52
142 -1 164 12 203 53 161z m16 -870 c21 -42 20 -225 -3 -276 -18 -43 -32 -48
-41 -15 -8 29 -8 291 0 312 9 22 26 14 44 -21z m2190 -90 c30 -23 68 -44 85
-46 41 -4 43 -29 6 -85 -32 -49 -39 -90 -20 -126 7 -11 40 -54 75 -95 72 -84
87 -126 59 -168 -21 -33 -117 -79 -126 -61 -4 7 -10 56 -14 110 -6 91 -9 100
-40 137 -20 24 -36 56 -40 82 -4 24 -16 57 -26 74 -11 18 -19 50 -19 75 0 57
-15 108 -36 124 -11 7 -15 19 -11 29 8 21 28 12 107 -50z m1535 -88 c0 -64 -2
-69 -33 -97 -58 -52 -104 -30 -83 40 6 21 11 52 11 70 0 28 3 31 29 31 16 0
34 7 41 15 24 29 35 10 35 -59z m-4065 -2221 l0 -605 -560 0 -560 0 0 605 0
605 560 0 560 0 0 -605z m6547 588 c34 -5 64 -11 67 -13 6 -7 -38 -171 -57
-206 -26 -49 -89 -100 -133 -107 -71 -12 -104 -71 -104 -187 0 -127 48 -177
172 -179 51 -1 78 -9 78 -22 0 -16 -36 -28 -131 -44 -52 -9 -102 -24 -112 -32
-29 -27 -21 -69 23 -117 38 -41 65 -56 160 -90 25 -9 68 -34 95 -57 60 -50
109 -73 141 -65 29 8 31 31 8 84 -30 68 -35 96 -44 234 -5 75 -14 154 -19 176
-15 54 -55 92 -97 92 -19 0 -34 4 -34 8 0 4 24 23 54 41 103 62 137 31 156
-144 30 -283 35 -298 94 -330 34 -18 37 -18 53 -3 22 23 34 197 31 444 l-3
188 -50 12 c-132 34 -171 64 -140 110 8 13 24 24 35 24 11 0 27 12 37 26 16
24 16 31 1 83 -8 31 -18 64 -23 74 -7 16 41 17 934 17 l941 0 0 -605 0 -605
-4205 0 -4205 0 0 606 0 605 3108 -4 c1709 -3 3135 -9 3169 -14z m3573 -588
l0 -605 -600 0 -600 0 0 605 0 605 600 0 600 0 0 -605z"/>
<path d="M9470 13159 c-38 -15 -78 -58 -85 -90 -5 -21 0 -40 17 -67 23 -36 23
-43 26 -344 l4 -308 146 0 c164 0 262 13 307 39 40 23 75 77 75 115 0 38 -34
96 -56 96 -9 0 -56 -27 -106 -60 -49 -33 -96 -60 -103 -60 -32 0 -39 44 -50
321 -9 233 -13 280 -28 302 -34 51 -98 76 -147 56z"/>
<path d="M2285 13124 c-39 -21 -123 -102 -141 -136 -26 -50 -13 -157 25 -202
9 -10 32 -29 53 -42 20 -13 48 -35 62 -49 14 -14 32 -25 41 -25 24 0 87 -35
113 -62 26 -28 44 -82 35 -104 -5 -13 -15 -14 -52 -9 -69 10 -131 41 -181 90
-50 48 -87 63 -119 45 -47 -25 -16 -174 46 -218 58 -41 198 -82 284 -82 55 0
114 35 165 99 57 73 57 142 -1 258 -41 83 -76 118 -179 180 -82 49 -99 68 -72
79 29 11 83 -6 127 -41 81 -65 125 -40 117 65 -5 69 -37 117 -95 146 -53 26
-187 30 -228 8z"/>
<path d="M4471 13121 c-59 -21 -106 -62 -116 -102 -5 -19 0 -33 17 -54 22 -25
33 -28 101 -33 l77 -5 0 -288 0 -289 105 0 105 0 0 290 0 290 63 0 c90 0 135
15 143 47 9 35 -21 92 -62 115 -82 48 -330 64 -433 29z"/>
<path d="M5160 12745 l0 -395 105 0 105 0 0 395 0 395 -105 0 -105 0 0 -395z"/>
<path d="M8789 13117 c-62 -33 -97 -109 -154 -327 -25 -96 -59 -215 -76 -264
-44 -128 -32 -152 72 -144 43 3 44 3 51 48 11 67 43 90 121 89 85 0 127 -17
152 -58 11 -19 34 -49 51 -68 28 -29 38 -33 83 -33 42 0 57 5 76 25 32 31 33
80 4 112 -13 13 -25 44 -30 74 -5 28 -20 73 -34 100 -14 27 -36 91 -50 143
-27 106 -49 154 -108 239 -36 52 -79 87 -105 87 -5 0 -29 -10 -53 -23z"/>
<path d="M3805 13119 c-46 -23 -111 -159 -195 -406 -96 -280 -87 -340 55 -359
42 -6 45 -5 55 20 5 15 10 40 10 56 0 40 46 76 117 90 53 11 132 8 155 -6 5
-3 23 -35 40 -71 35 -72 58 -93 103 -93 54 0 75 24 75 85 0 118 -190 606 -260
670 -22 20 -125 30 -155 14z"/>
<path d="M2970 13110 c-30 -4 -62 -11 -71 -14 -25 -11 -39 -52 -39 -115 0 -71
1 -71 116 -71 l85 0 -3 -269 c-2 -148 0 -273 5 -277 9 -9 118 -6 167 4 l35 8
3 267 2 267 80 0 c94 0 105 11 98 92 -7 70 -36 96 -119 108 -74 11 -279 11
-359 0z"/>
<path d="M5825 13110 c-40 -7 -57 -17 -86 -49 -20 -23 -44 -56 -53 -75 -32
-69 -13 -171 49 -251 24 -32 71 -57 140 -74 96 -25 188 -116 155 -156 -16 -19
-82 -20 -118 -1 -15 8 -49 37 -77 65 -79 81 -144 91 -165 26 -21 -64 29 -182
95 -222 25 -15 52 -18 170 -18 166 0 185 8 256 105 60 81 71 116 51 155 -20
40 -121 136 -163 157 -19 9 -46 22 -62 29 -33 15 -89 96 -85 123 7 46 108 42
108 -4 0 -39 19 -60 53 -60 51 1 97 49 97 102 -1 28 -59 111 -95 134 -31 20
-190 28 -270 14z"/>
<path d="M6606 13109 c-77 -11 -164 -51 -175 -81 -11 -30 3 -79 30 -100 16
-13 39 -18 90 -18 l69 0 0 -280 0 -280 110 0 110 0 0 279 0 279 91 4 c81 3 93
6 110 27 24 30 25 92 2 113 -57 51 -281 80 -437 57z"/>
<path d="M7280 12750 l0 -370 95 0 95 0 0 370 0 370 -95 0 -95 0 0 -370z"/>
<path d="M7790 13048 c-65 -91 -87 -142 -101 -227 -26 -168 60 -356 187 -413
127 -56 356 -39 432 32 30 28 26 70 -8 88 -35 18 -108 7 -133 -19 -17 -18 -27
-20 -68 -15 -71 10 -121 30 -141 57 -36 48 -45 272 -16 367 13 43 56 62 141
62 50 0 70 -5 90 -21 51 -40 149 -34 155 10 4 28 -41 106 -76 129 -22 14 -56
18 -218 20 l-192 4 -52 -74z"/>
<path d="M860 11125 l0 -395 105 0 105 0 0 395 0 395 -105 0 -105 0 0 -395z"/>
<path d="M650 9810 l0 -370 84 0 85 0 3 175 c2 140 6 177 18 190 14 13 18 13
38 -1 12 -8 76 -78 143 -155 67 -78 136 -150 153 -160 21 -13 50 -19 89 -19
l57 0 0 355 0 355 -90 0 -90 0 0 -192 0 -192 -66 64 c-36 36 -102 111 -145
167 -112 144 -125 153 -210 153 l-69 0 0 -370z"/>
<path d="M680 8409 l0 -411 209 4 209 3 45 33 c25 17 52 32 60 32 27 0 64 39
87 92 17 40 24 78 28 155 8 179 -24 279 -118 374 -101 101 -186 128 -407 129
l-113 0 0 -411z m337 252 c25 -12 48 -32 58 -51 20 -38 40 -249 32 -336 -11
-112 -30 -131 -143 -141 l-76 -6 4 260 c3 281 6 293 57 293 14 0 45 -9 68 -19z"/>
<path d="M860 7045 l0 -385 105 0 105 0 0 385 0 385 -105 0 -105 0 0 -385z"/>
<path d="M945 6030 c-30 -11 -42 -29 -55 -80 -6 -25 -20 -58 -31 -73 -11 -15
-24 -54 -30 -86 -5 -32 -23 -104 -39 -160 -56 -189 -72 -299 -50 -342 9 -15
22 -19 69 -19 37 0 63 5 70 14 6 7 14 41 18 76 8 85 24 100 106 100 73 0 80
-5 122 -90 40 -80 61 -100 107 -100 56 0 78 15 78 51 0 69 -97 377 -167 529
-48 105 -79 146 -127 170 -47 22 -43 22 -71 10z"/>
<path d="M698 4598 c-10 -17 -14 -118 -16 -400 l-4 -378 95 0 96 0 3 194 c2
107 6 198 11 202 11 11 48 -28 160 -166 130 -162 196 -230 223 -230 45 0 48
29 52 428 l4 372 -91 0 -91 0 0 -197 0 -196 -183 180 c-100 99 -197 187 -214
197 -31 16 -33 15 -45 -6z"/>
<path d="M9125 9922 c-60 -33 -95 -81 -95 -132 0 -75 41 -76 156 -4 40 24 76
44 82 44 16 0 49 -51 59 -90 10 -40 24 -47 47 -25 34 34 16 118 -37 174 -63
66 -132 77 -212 33z"/>
<path d="M10980 11190 l0 -360 105 0 105 0 0 360 0 360 -105 0 -105 0 0 -360z"/>
<path d="M10750 10345 l0 -345 79 0 79 0 3 154 c2 85 7 158 11 162 8 7 25 -8
210 -174 119 -108 175 -145 215 -140 22 2 29 10 34 33 4 17 7 171 8 343 l1
312 -80 0 -80 0 0 -112 c0 -139 -9 -218 -24 -218 -17 0 -147 130 -224 223 -75
91 -102 107 -177 107 l-55 0 0 -345z"/>
<path d="M11007 9819 c-87 -10 -154 -70 -178 -161 -25 -94 22 -163 169 -251
85 -50 145 -108 140 -135 -3 -13 -17 -18 -68 -20 -88 -4 -125 4 -163 37 -68
60 -102 49 -95 -29 6 -62 30 -98 84 -125 53 -27 214 -28 296 -1 110 36 148 89
148 207 0 51 -4 61 -37 99 -107 121 -104 119 -178 136 -164 37 -188 54 -145
99 29 31 65 32 152 5 96 -30 151 -35 167 -16 27 33 -16 107 -78 134 -47 19
-141 29 -214 21z"/>
<path d="M10935 8931 c-47 -12 -91 -38 -114 -67 -46 -58 -17 -84 95 -84 l64 0
0 -265 0 -265 115 0 115 0 0 265 0 265 63 0 c103 0 142 36 95 87 -48 53 -100
67 -258 70 -80 1 -158 -2 -175 -6z"/>
<path d="M10950 7760 l0 -370 105 0 105 0 0 370 0 370 -105 0 -105 0 0 -370z"/>
<path d="M10887 7256 c-52 -14 -82 -37 -103 -78 -33 -64 -8 -88 92 -88 l74 0
0 -265 0 -265 105 0 105 0 0 265 0 265 78 0 c84 0 102 9 102 48 0 37 -38 82
-89 105 -38 17 -70 22 -181 24 -90 2 -151 -2 -183 -11z"/>
<path d="M10750 6137 l0 -253 90 -82 c112 -101 169 -132 244 -132 51 0 60 4
113 46 93 75 124 107 141 144 13 31 28 262 31 488 l1 42 -84 0 -84 0 -4 -217
c-5 -237 -15 -287 -65 -337 -56 -56 -146 -18 -199 84 -16 30 -19 65 -22 253
l-4 217 -79 0 -79 0 0 -253z"/>
<path d="M10882 5439 c-110 -21 -176 -112 -101 -138 18 -6 62 -11 99 -11 l68
0 4 -232 c5 -240 13 -289 48 -308 29 -16 116 -12 130 5 16 19 29 182 30 362 0
78 3 148 6 157 5 13 23 16 89 16 87 0 135 11 135 31 0 24 -95 107 -135 118
-46 13 -309 13 -373 0z"/>
<path d="M10820 4205 l0 -385 260 0 260 0 0 80 0 80 -165 0 -165 0 0 85 0 85
99 0 c55 0 111 4 126 10 24 9 26 14 23 62 -4 62 -10 65 -135 67 -95 1 -113 12
-113 71 0 63 15 70 146 70 64 0 124 5 135 10 16 9 19 22 19 80 l0 70 -245 0
-245 0 0 -385z"/>
<path d="M5993 10678 c-17 -23 -63 -165 -63 -197 0 -38 21 -41 44 -6 9 14 25
25 36 25 18 0 34 15 35 35 1 6 5 18 9 28 5 11 2 34 -8 62 -20 52 -39 71 -53
53z"/>
<path d="M8160 9403 c-14 -10 -33 -16 -42 -15 -21 4 -42 -33 -34 -61 3 -13 -4
-31 -20 -50 -14 -16 -23 -35 -21 -41 4 -12 112 -30 133 -22 8 3 14 17 14 30 0
14 14 41 31 60 24 28 30 42 27 73 -3 34 -6 38 -33 41 -17 1 -41 -5 -55 -15z"/>
<path d="M2534 9585 c-33 -33 -21 -54 48 -92 53 -29 59 -36 75 -88 9 -33 36
-44 60 -24 31 26 -4 146 -60 207 -29 32 -90 30 -123 -3z"/>
<path d="M3896 9104 c-10 -26 -7 -32 30 -74 42 -46 41 -56 -17 -132 -27 -37
-37 -58 -33 -73 13 -39 75 -114 122 -144 83 -53 93 -62 123 -111 51 -82 134
-123 173 -84 26 26 19 46 -36 94 -161 141 -219 231 -243 374 -13 84 -25 116
-53 149 -19 21 -58 22 -66 1z"/>
<path d="M5843 5954 c-26 -41 -27 -118 -3 -247 29 -153 25 -230 -14 -281 -15
-21 -26 -46 -24 -58 3 -20 116 -125 160 -149 22 -12 45 11 57 59 27 99 53 291
49 363 -4 67 -11 89 -52 172 -47 94 -108 167 -141 167 -8 0 -22 -12 -32 -26z"/>
<path d="M6123 4753 c-9 -23 55 -79 107 -93 41 -11 130 -4 130 10 0 14 -72 63
-121 81 -62 24 -107 25 -116 2z"/>
<path d="M9675 4556 c-21 -15 -14 -46 11 -46 10 0 26 -7 35 -16 24 -22 10 -49
-31 -57 -51 -11 -36 -57 19 -57 10 0 27 11 39 25 12 14 31 25 43 25 29 0 59
18 59 35 0 8 -19 24 -42 36 -24 12 -53 32 -65 45 -25 27 -41 30 -68 10z"/>
<path d="M3207 4326 c-93 -20 -102 -48 -21 -67 52 -12 101 -11 147 2 29 8 37
15 37 33 0 18 -8 27 -31 35 -39 13 -57 13 -132 -3z"/>
<path d="M2446 4314 c-36 -35 -13 -100 38 -109 57 -11 156 43 143 78 -5 14
-107 47 -144 47 -12 0 -29 -7 -37 -16z"/>
<path d="M9892 4235 c-12 -15 -24 -35 -27 -45 -3 -10 -22 -28 -41 -39 -26 -16
-35 -27 -32 -44 3 -19 10 -22 51 -25 41 -3 51 1 76 26 29 29 55 98 49 130 -5
29 -53 27 -76 -3z"/>
<path d="M5515 4216 c-47 -21 -105 -75 -105 -97 0 -16 51 -22 89 -10 49 14
109 60 117 88 13 49 -23 56 -101 19z"/>
<path d="M2935 4201 c-28 -12 -105 -97 -105 -116 0 -25 -80 -105 -130 -130
-56 -29 -73 -47 -68 -77 5 -36 46 -34 130 5 84 39 109 64 167 164 22 39 50 75
61 78 11 3 23 17 26 31 11 44 -28 66 -81 45z"/>
<path d="M6854 3878 c-16 -12 -61 -52 -100 -88 -75 -71 -144 -122 -191 -142
-15 -6 -80 -14 -143 -17 -96 -5 -115 -9 -118 -22 -6 -32 74 -52 185 -46 161 8
228 39 366 174 68 66 91 105 83 139 -8 31 -43 32 -82 2z"/>
<path d="M7797 3873 c-13 -12 -7 -50 11 -65 9 -9 32 -23 50 -32 17 -9 32 -23
32 -31 0 -16 42 -30 65 -21 21 8 19 59 -2 78 -10 9 -28 19 -40 22 -11 4 -28
18 -37 31 -16 24 -63 35 -79 18z"/>
<path d="M1916 3814 c-67 -66 104 -263 211 -242 39 7 25 42 -41 101 -43 38
-68 69 -77 94 -6 21 -16 44 -22 51 -13 17 -52 15 -71 -4z"/>
<path d="M4700 3817 c-42 -15 -63 -58 -39 -82 14 -14 22 -13 82 10 37 14 85
25 107 25 21 0 50 4 64 10 29 11 34 35 10 44 -27 10 -187 5 -224 -7z"/>
<path d="M7227 3720 c-76 -9 -117 -30 -117 -60 0 -29 36 -43 92 -37 85 10 189
69 165 93 -10 10 -74 12 -140 4z"/>
<path d="M6957 3674 c-60 -41 -73 -104 -21 -104 56 0 163 82 151 114 -10 26
-86 21 -130 -10z"/>
<path d="M9232 3610 c-18 -4 -43 -19 -57 -34 -13 -14 -33 -26 -43 -26 -11 0
-22 -6 -25 -14 -9 -23 23 -41 71 -40 35 1 49 6 60 23 10 14 25 21 46 21 47 0
81 21 81 50 0 23 -4 25 -50 27 -27 1 -65 -2 -83 -7z"/>
<path d="M9488 3593 c-18 -4 -36 -49 -24 -60 3 -3 37 -5 76 -4 55 1 70 -1 70
-13 0 -19 25 -27 53 -17 31 12 46 31 53 69 l7 32 -109 -1 c-60 -1 -117 -3
-126 -6z"/>
<path d="M6462 6050 c-28 -31 -48 -119 -36 -162 8 -28 15 -33 39 -34 17 0 40
-5 52 -12 54 -29 84 -2 98 88 11 78 -22 124 -98 137 -27 4 -39 1 -55 -17z"/>
<path d="M7199 5093 c-17 -44 -33 -176 -25 -206 8 -35 40 -36 62 -2 24 37 30
151 11 198 -19 44 -34 47 -48 10z"/>
<path d="M2240 3134 c-120 -56 -140 -101 -147 -346 -3 -91 -2 -272 2 -402 l7
-236 89 0 89 0 0 265 0 265 60 0 c69 0 103 -13 120 -45 27 -50 -19 -119 -102
-155 l-53 -23 35 -29 c136 -117 196 -142 235 -98 14 15 31 20 72 20 91 0 130
-33 116 -101 -8 -43 33 -79 92 -79 57 0 83 13 96 48 6 15 14 120 18 233 7 200
8 207 35 253 51 87 21 119 -106 113 -82 -4 -128 -24 -128 -55 0 -10 11 -34 24
-53 35 -51 40 -81 22 -118 -17 -33 -51 -54 -103 -65 -40 -9 -67 15 -83 74 -15
56 -7 74 50 109 28 17 50 35 50 40 0 5 -8 18 -17 30 -25 29 -98 41 -262 42
-181 1 -186 3 -185 62 1 81 44 106 198 116 57 4 91 10 93 18 6 18 -62 78 -128
113 -70 37 -116 38 -189 4z"/>
<path d="M4464 3140 c-25 -10 -84 -76 -84 -94 0 -7 24 -29 52 -47 40 -26 60
-48 82 -92 21 -42 26 -61 19 -68 -8 -8 -17 1 -33 32 -41 83 -119 147 -197 164
-27 5 -37 2 -57 -18 -35 -35 -44 -76 -21 -94 11 -7 26 -13 36 -13 18 0 69 -36
69 -49 0 -5 -69 -12 -152 -16 -171 -8 -208 -18 -238 -67 -25 -42 -25 -76 0
-103 17 -18 22 -40 26 -111 8 -134 12 -152 50 -193 43 -48 117 -81 180 -80 34
0 64 -8 97 -25 26 -13 73 -27 105 -31 141 -15 138 -13 202 -71 65 -57 83 -65
96 -36 4 9 10 145 12 301 l4 283 171 -4 c117 -3 180 -9 197 -18 l24 -13 -24
-9 c-13 -5 -41 -6 -61 -3 -85 14 -176 -41 -198 -120 -16 -57 -14 -139 4 -182
32 -75 68 -98 179 -112 59 -7 87 -16 118 -38 90 -63 97 -66 114 -52 30 25 47
74 48 140 2 55 7 75 30 109 l28 42 33 -50 c66 -97 209 -192 289 -192 27 0 44
-7 60 -25 25 -27 46 -31 76 -15 40 21 44 48 50 290 6 245 12 280 50 280 50 0
129 -114 114 -164 -4 -11 -22 -35 -40 -52 -27 -26 -34 -39 -34 -70 0 -77 92
-222 181 -285 24 -17 33 -18 44 -9 22 18 18 70 -10 115 -45 72 -27 112 46 102
48 -6 167 -61 239 -111 29 -20 63 -36 75 -36 35 0 69 -15 101 -45 64 -59 85
-14 95 210 4 93 14 213 23 265 18 113 13 147 -23 163 -19 9 -280 12 -1006 14
-558 0 -993 5 -1010 10 -26 8 -31 16 -38 58 -8 47 -63 174 -89 206 -29 35 -65
45 -104 29z m1780 -463 c33 -18 69 -44 80 -59 19 -27 19 -28 1 -48 -29 -32
-104 -28 -137 8 -14 15 -28 40 -31 56 -5 31 7 76 20 76 5 0 35 -15 67 -33z
m247 18 c16 -9 34 -27 39 -41 13 -34 13 -146 -1 -181 l-11 -28 -19 24 c-23 28
-83 216 -74 231 9 14 31 12 66 -5z m-830 -17 c16 -30 16 -153 1 -199 -13 -38
-57 -87 -69 -76 -4 4 -1 30 6 58 9 33 11 75 7 118 -7 73 4 121 28 121 9 0 21
-10 27 -22z m-560 -135 c14 -37 -1 -87 -41 -135 -40 -49 -61 -48 -89 2 -26 47
-22 58 43 118 53 49 73 52 87 15z"/>
<path d="M3402 3047 c-32 -34 -28 -73 12 -113 28 -28 41 -34 70 -32 40 2 72
-21 63 -45 -7 -18 -51 -24 -247 -33 -172 -8 -204 -17 -208 -62 -3 -28 3 -39
35 -67 l38 -33 -35 -18 c-85 -46 -115 -108 -87 -177 23 -53 120 -94 147 -62 7
8 29 15 49 15 48 0 135 -26 151 -45 18 -21 48 -19 104 10 54 28 88 32 104 13
5 -7 13 -38 17 -68 4 -30 13 -66 20 -80 21 -40 61 -72 86 -68 34 4 45 56 64
281 9 106 21 223 26 260 13 82 10 92 -30 100 -22 5 -59 36 -128 107 -54 56
-112 110 -129 121 -43 26 -95 25 -122 -4z m-63 -334 c8 -15 27 -19 115 -21
112 -4 119 -7 129 -59 10 -49 -8 -57 -95 -43 -40 7 -85 19 -100 26 -28 15 -78
79 -78 101 0 19 17 16 29 -4z"/>
<path d="M9257 2860 c-94 -16 -106 -53 -57 -169 33 -76 32 -88 -10 -126 -29
-26 -60 -88 -60 -118 0 -35 40 -88 85 -114 29 -17 56 -23 100 -23 59 0 68 3
139 54 25 18 28 18 45 2 16 -15 40 -57 71 -126 10 -22 117 -100 189 -139 76
-40 105 -39 109 6 4 36 -31 82 -97 128 -52 35 -61 67 -61 215 0 149 13 232 44
293 33 63 33 82 -1 96 -65 25 -386 39 -496 21z m213 -145 c40 -21 60 -53 60
-96 0 -42 -10 -49 -75 -49 -34 0 -47 5 -55 19 -21 41 -2 141 26 141 8 0 28 -7
44 -15z"/>
<path d="M8717 2850 c-93 -7 -116 -21 -117 -66 0 -35 24 -45 125 -51 84 -5 98
-9 120 -31 14 -14 25 -29 25 -33 0 -18 -54 -42 -147 -65 -162 -40 -194 -74
-153 -159 40 -82 131 -117 170 -66 33 45 77 15 153 -104 56 -88 139 -124 154
-67 9 29 11 627 3 635 -10 9 -247 15 -333 7z"/>
<path d="M7355 2838 c-59 -32 -82 -81 -51 -107 8 -7 43 -17 78 -22 34 -6 79
-14 98 -18 l35 -8 -50 -7 c-27 -4 -68 -12 -90 -17 -127 -34 -182 -172 -118
-298 25 -52 136 -181 154 -181 5 0 39 -25 75 -56 57 -48 70 -55 101 -52 50 4
94 59 100 125 4 42 1 54 -26 91 -40 54 -69 65 -148 57 -100 -11 -140 9 -134
65 3 26 59 70 90 70 16 0 37 8 47 17 12 12 33 18 69 18 31 0 59 6 70 15 25 21
45 72 45 115 0 20 7 52 15 71 12 29 18 34 35 29 11 -3 20 -2 20 3 0 17 -46 51
-87 66 -90 32 -288 46 -328 24z"/>
<path d="M50 740 l0 -740 5950 0 5950 0 0 740 0 740 -5950 0 -5950 0 0 -740z
m11610 0 l0 -500 -5650 0 -5650 0 0 500 0 500 5650 0 5650 0 0 -500z"/>
<path d="M9943 1136 c-55 -18 -100 -51 -119 -88 -30 -58 6 -88 102 -88 l34 0
0 -265 0 -265 110 0 110 0 0 265 0 265 43 1 c100 2 124 27 84 87 -40 62 -112
92 -229 98 -62 3 -107 0 -135 -10z"/>
<path d="M8180 1115 c-8 -2 -31 -6 -52 -10 -29 -4 -38 -12 -47 -37 -7 -20 -11
-142 -11 -334 l0 -304 64 0 c88 0 96 12 96 147 0 113 10 153 38 153 29 0 99
-65 105 -99 7 -35 120 -159 170 -186 44 -23 87 -15 87 18 0 12 -11 40 -25 62
-75 124 -75 120 -45 275 12 57 18 117 15 132 -8 36 -88 124 -144 160 -42 26
-52 28 -140 27 -53 -1 -103 -3 -111 -4z m218 -167 c20 -20 13 -55 -14 -77 -44
-34 -132 -26 -148 14 -8 22 10 54 37 65 33 13 111 12 125 -2z"/>
<path d="M8935 1106 c-45 -20 -113 -98 -120 -140 -10 -53 1 -82 53 -138 55
-59 110 -87 170 -88 70 0 100 -49 70 -115 -15 -33 -33 -32 -74 4 -54 48 -170
53 -197 10 -27 -43 40 -131 132 -173 122 -54 185 -43 270 49 57 62 91 136 91
201 0 46 -4 55 -37 87 -49 48 -145 99 -212 112 -30 6 -56 16 -58 22 -2 6 12
24 32 39 34 25 38 26 47 11 11 -21 90 -23 128 -4 57 29 24 104 -56 126 -54 15
-202 13 -239 -3z"/>
<path d="M9460 775 l0 -345 95 0 95 0 0 345 0 345 -95 0 -95 0 0 -345z"/>
<path d="M7510 764 l0 -336 228 4 c249 3 262 6 262 59 0 40 -24 49 -132 49
-111 0 -142 12 -146 56 -5 47 19 64 88 64 73 0 90 15 90 76 0 74 -10 84 -85
84 -75 0 -95 14 -95 69 0 63 11 69 136 73 134 4 146 11 142 77 -3 39 -7 46
-28 52 -14 4 -123 7 -242 8 l-218 1 0 -336z"/>
<path d="M10455 1088 c-2 -7 -5 -20 -8 -28 -7 -23 18 -76 56 -120 18 -22 57
-85 86 -140 29 -55 64 -113 77 -130 22 -25 27 -44 33 -125 4 -68 11 -99 21
-105 19 -12 100 -13 119 -1 9 6 16 40 21 94 9 99 25 138 109 271 79 126 99
165 107 213 8 50 -16 73 -78 75 -60 1 -77 -10 -148 -97 -34 -41 -68 -75 -77
-75 -9 0 -49 31 -89 70 -40 38 -91 78 -113 90 -45 22 -110 27 -116 8z"/>
<path d="M5870 749 l0 -322 138 6 c183 8 297 40 320 92 6 13 29 33 50 44 23
12 42 30 46 43 12 45 6 248 -8 281 -27 66 -133 135 -248 162 -37 9 -112 15
-180 15 l-118 0 0 -321z m293 165 c122 -57 137 -106 72 -234 -34 -68 -56 -83
-127 -88 l-61 -5 5 154 c5 154 14 199 43 199 8 0 39 -12 68 -26z"/>
<path d="M6520 750 l0 -320 95 0 95 0 0 320 0 320 -95 0 -95 0 0 -320z"/>
<path d="M6842 1058 c-22 -22 -14 -112 17 -200 41 -115 165 -372 192 -397 35
-32 82 -28 114 11 57 67 190 379 216 504 17 83 11 94 -48 94 -26 0 -53 -4 -59
-8 -6 -4 -19 -32 -27 -62 -16 -56 -74 -160 -106 -193 -18 -18 -19 -17 -54 25
-19 23 -54 79 -78 123 -23 44 -49 88 -57 98 -18 20 -91 24 -110 5z"/>
<path d="M3279 1019 c-50 -53 -41 -77 74 -199 44 -46 86 -99 93 -117 9 -21 14
-74 14 -153 l0 -120 95 0 95 0 0 108 c0 59 5 123 10 143 6 20 44 87 85 149 60
89 75 119 75 149 0 20 -5 42 -12 49 -42 42 -177 -30 -207 -111 -20 -52 -101
-55 -117 -4 -9 27 -82 105 -115 123 -41 21 -58 18 -90 -17z"/>
<path d="M4420 740 l0 -310 95 0 95 0 0 310 0 310 -95 0 -95 0 0 -310z"/>
<path d="M5128 916 l-3 -135 -80 70 c-174 152 -224 189 -260 189 -21 0 -36 -6
-41 -17 -5 -10 -10 -147 -12 -305 l-3 -288 90 0 91 0 0 167 0 168 95 -95 c100
-99 155 -171 155 -202 0 -24 38 -38 106 -38 l54 0 0 310 0 310 -95 0 -94 0 -3
-134z"/>
<path d="M882 858 c8 -243 55 -389 143 -440 68 -39 260 -47 341 -13 18 7 46
32 63 55 46 64 63 156 69 373 l4 187 -96 0 -96 0 0 -107 c0 -60 -3 -159 -7
-220 l-6 -113 -92 0 -92 0 -7 53 c-3 28 -6 100 -6 158 0 58 -3 134 -6 168 l-7
61 -105 0 -105 0 5 -162z"/>
<path d="M1620 715 l0 -305 89 0 88 0 5 135 c5 163 15 183 66 140 18 -15 63
-68 102 -120 92 -123 130 -155 179 -155 27 0 41 5 47 18 4 9 10 146 12 305 l4
287 -86 0 c-102 0 -106 -4 -106 -107 0 -70 -7 -113 -19 -113 -4 0 -52 43 -108
94 -56 52 -115 102 -132 110 -17 9 -55 16 -86 16 l-55 0 0 -305z"/>
<path d="M2320 715 l0 -305 95 0 95 0 0 305 0 305 -95 0 -95 0 0 -305z"/>
<path d="M2760 1000 c-63 -21 -100 -58 -100 -99 0 -33 17 -41 98 -41 l52 0 0
-225 0 -225 90 0 90 0 1 193 c2 247 2 250 56 258 44 6 73 23 73 45 0 29 -62
84 -113 99 -70 21 -179 19 -247 -5z"/>
</g>
</svg>
