<?xml version="1.0" standalone="no"?>
<!DOCTYPE svg PUBLIC "-//W3C//DTD SVG 20010904//EN"
 "http://www.w3.org/TR/2001/REC-SVG-20010904/DTD/svg10.dtd">
<svg version="1.0" xmlns="http://www.w3.org/2000/svg"
 width="1200.000000pt" height="1200.000000pt" viewBox="0 0 1200.000000 1200.000000"
 preserveAspectRatio="xMidYMid meet">
<metadata>
Created by potrace 1.16, written by Peter Selinger 2001-2019
</metadata>
<g transform="translate(0.000000,1200.000000) scale(0.100000,-0.100000)"
fill="#000000" stroke="none">
<path d="M5640 11890 c-1063 -65 -2043 -390 -2916 -965 -382 -253 -717 -536
-1056 -895 -575 -608 -1027 -1370 -1291 -2175 -201 -612 -291 -1184 -291
-1845 0 -326 11 -496 50 -790 218 -1632 1110 -3090 2474 -4045 739 -517 1615
-860 2520 -989 322 -46 405 -51 840 -51 435 0 518 5 840 51 1544 219 2947
1054 3881 2309 806 1084 1209 2387 1158 3745 -44 1153 -417 2252 -1079 3180
-951 1333 -2387 2202 -4005 2425 -313 43 -822 63 -1125 45z m615 -200 c99 -6
245 -17 325 -25 2408 -259 4399 -2032 4934 -4395 44 -194 89 -466 113 -680 23
-208 26 -900 5 -1100 -126 -1206 -553 -2226 -1318 -3145 -139 -167 -512 -540
-679 -679 -904 -752 -1909 -1179 -3085 -1312 -196 -22 -758 -30 -973 -15
-1166 85 -2250 507 -3149 1226 -197 158 -251 205 -436 389 -186 183 -288 293
-417 451 -745 909 -1175 1977 -1276 3170 -19 216 -16 699 5 925 72 791 289
1520 650 2192 642 1192 1670 2109 2922 2606 749 298 1581 435 2379 392z"/>
<path d="M5497 11352 c-12 -3 -17 -11 -15 -25 2 -15 14 -25 43 -33 26 -7 44
-19 52 -35 8 -17 12 -133 14 -378 l3 -354 -26 -21 c-15 -11 -37 -28 -49 -37
-45 -32 -15 -39 157 -39 144 0 165 2 171 16 8 20 -21 44 -53 44 -13 0 -34 10
-48 23 -25 22 -26 24 -27 182 l-1 160 70 3 70 3 118 -178 c69 -103 135 -190
157 -208 36 -28 45 -30 120 -30 73 0 82 2 82 18 0 13 -13 23 -38 32 -22 7 -50
24 -63 36 -26 25 -254 355 -253 367 0 4 19 21 41 37 62 45 100 120 99 195 0
116 -63 192 -181 220 -43 10 -389 12 -443 2z m386 -74 c110 -33 160 -180 96
-284 -29 -48 -79 -65 -179 -62 l-85 3 -3 165 c-1 90 0 170 2 177 7 17 114 17
169 1z"/>
<path d="M6587 11333 c-13 -13 -6 -23 33 -48 90 -57 91 -95 14 -458 -66 -305
-74 -326 -144 -343 -34 -8 -45 -15 -45 -30 0 -14 10 -21 35 -27 19 -4 81 -18
137 -31 57 -12 105 -21 108 -18 16 16 1 44 -34 61 -21 11 -41 29 -44 40 -5 20
94 504 111 545 6 15 44 -44 176 -280 259 -460 274 -484 296 -484 24 0 22 -6
100 360 33 157 70 325 81 373 l21 89 44 18 c67 29 55 53 -33 65 -29 4 -85 15
-124 25 -40 11 -76 17 -81 14 -16 -10 -7 -34 20 -51 48 -29 71 -55 77 -84 7
-30 -103 -569 -116 -569 -3 0 -104 172 -224 383 -120 210 -226 393 -236 407
-13 19 -33 29 -76 38 -67 14 -87 15 -96 5z"/>
<path d="M5070 11289 c-19 -5 -145 -31 -280 -59 -134 -28 -247 -56 -251 -62
-12 -19 9 -37 48 -40 25 -2 42 -11 54 -28 18 -24 159 -658 159 -714 0 -15 -12
-33 -35 -50 -62 -48 -33 -72 55 -46 19 6 124 28 232 50 108 21 210 46 227 54
56 29 107 175 72 209 -11 10 -15 8 -25 -7 -29 -50 -94 -109 -150 -136 -106
-53 -222 -75 -244 -47 -12 15 -76 316 -69 323 9 9 179 44 214 44 28 0 35 -6
53 -40 22 -43 45 -59 61 -43 9 9 -40 266 -54 279 -15 15 -35 -7 -41 -45 -4
-27 -14 -46 -30 -56 -25 -17 -214 -61 -223 -52 -8 8 -62 267 -63 299 0 23 6
29 38 37 97 26 206 42 237 37 28 -6 36 -13 51 -51 11 -30 23 -45 34 -45 25 0
32 37 19 106 -18 104 -16 102 -89 83z"/>
<path d="M4050 11008 c-85 -39 -240 -105 -345 -148 -218 -90 -209 -80 -172
-200 19 -59 28 -75 43 -75 16 0 19 9 22 62 2 34 8 66 15 71 25 20 231 102 238
95 15 -17 279 -650 279 -671 0 -12 -14 -37 -30 -56 -19 -21 -28 -40 -24 -50 8
-21 17 -20 66 5 23 12 84 38 137 60 71 28 96 43 96 56 0 15 -10 19 -51 21 -33
2 -57 9 -67 20 -16 19 -287 646 -287 666 0 13 214 106 245 106 11 0 32 -14 46
-32 18 -21 32 -29 43 -25 24 9 19 34 -17 102 -25 47 -37 60 -57 62 -14 1 -95
-30 -180 -69z"/>
<path d="M8320 10801 c0 -11 11 -33 25 -49 14 -17 25 -36 25 -42 0 -7 -58
-108 -130 -225 -152 -248 -171 -288 -177 -375 -9 -117 33 -203 140 -290 115
-93 242 -138 337 -120 132 25 184 78 358 361 136 222 145 233 212 241 42 5 36
34 -12 59 -24 12 -69 39 -101 61 -85 58 -123 43 -67 -27 48 -61 56 -41 -147
-372 -95 -154 -130 -195 -195 -227 -63 -32 -118 -33 -190 -6 -111 42 -196 128
-218 220 -22 90 -5 132 151 387 77 125 145 233 150 238 6 6 31 10 57 10 62 0
62 20 -1 60 -196 124 -217 133 -217 96z"/>
<path d="M3163 10540 c-10 -11 -25 -20 -35 -20 -52 0 -173 -67 -237 -131 -72
-73 -101 -192 -67 -274 26 -62 93 -124 153 -141 66 -19 96 -15 277 38 157 46
209 47 253 7 79 -73 68 -198 -27 -282 -59 -54 -113 -77 -185 -77 -63 0 -146
30 -174 63 -17 22 -47 22 -55 0 -5 -12 15 -39 73 -97 l80 -80 58 12 c85 18
157 57 230 126 167 156 164 364 -6 464 -68 40 -166 37 -325 -12 -177 -54 -244
-48 -281 24 -80 155 153 332 328 250 26 -12 50 -26 53 -31 3 -5 14 -9 25 -9
40 0 31 29 -31 102 -77 90 -85 94 -107 68z"/>
<path d="M5610 10120 c-834 -78 -1584 -379 -2219 -890 -848 -682 -1377 -1643
-1508 -2737 -25 -209 -25 -709 0 -913 85 -688 305 -1284 679 -1837 306 -454
699 -840 1155 -1136 549 -357 1106 -557 1793 -644 189 -24 699 -24 890 0 519
65 924 183 1354 395 270 132 497 274 727 454 789 616 1339 1531 1508 2508 46
268 56 392 56 720 -1 336 -12 470 -60 735 -202 1096 -832 2052 -1760 2669
-204 136 -305 193 -507 290 -401 192 -818 314 -1278 372 -147 18 -685 27 -830
14z m765 -105 c680 -72 1338 -319 1885 -708 242 -173 531 -434 719 -652 674
-780 1024 -1791 971 -2809 -15 -284 -44 -486 -106 -746 -370 -1547 -1639
-2736 -3204 -3004 -264 -45 -339 -51 -690 -51 -356 0 -447 7 -736 61 -1629
298 -2927 1619 -3203 3259 -52 307 -69 723 -42 1025 75 834 413 1629 962 2265
122 141 372 382 515 497 537 431 1166 714 1838 828 148 25 265 38 491 54 97 7
461 -4 600 -19z"/>
<path d="M5675 9776 c-93 -6 -176 -15 -183 -19 -17 -11 3 -37 28 -37 35 0 41
-26 56 -277 l14 -248 -32 -27 c-52 -45 -33 -50 163 -38 96 6 184 13 197 15 13
3 35 25 52 52 52 82 34 115 -32 58 -23 -19 -65 -42 -92 -50 -52 -16 -152 -20
-159 -7 -3 4 -8 58 -12 120 l-8 112 87 0 c83 0 86 -1 92 -25 8 -31 31 -52 45
-38 14 14 -2 195 -19 201 -7 2 -17 -9 -23 -26 -13 -37 -50 -52 -129 -52 l-57
0 -6 108 c-2 59 -1 111 3 115 4 4 51 6 105 5 l98 -3 12 -35 c6 -19 18 -35 26
-35 11 0 14 16 14 70 l0 70 -35 1 c-19 1 -111 -4 -205 -10z"/>
<path d="M5175 9715 c-65 -18 -80 -25 -80 -41 0 -15 8 -20 38 -22 48 -4 51
-11 107 -228 44 -170 45 -204 9 -263 -45 -74 -207 -107 -280 -58 -55 37 -73
75 -124 267 l-48 183 21 18 c30 24 29 53 0 46 -57 -13 -182 -47 -186 -52 -13
-13 11 -35 37 -35 16 0 33 -5 37 -11 3 -6 28 -89 54 -185 27 -96 60 -194 74
-219 50 -85 147 -119 268 -95 170 33 256 139 229 281 -5 30 -28 121 -50 203
l-40 150 19 32 c30 48 11 54 -85 29z"/>
<path d="M7279 9501 c-100 -32 -148 -146 -100 -239 11 -21 60 -75 110 -121 50
-45 94 -94 97 -107 9 -35 -14 -83 -50 -105 -36 -22 -103 -25 -149 -5 -68 28
-127 129 -111 191 4 18 2 27 -11 31 -24 9 -31 -3 -48 -79 l-15 -69 34 -37 c40
-45 133 -89 203 -98 144 -17 255 97 220 226 -10 38 -29 63 -116 146 -89 86
-103 104 -103 132 0 43 36 82 82 90 29 4 50 -1 92 -21 66 -32 87 -63 95 -135
4 -41 10 -57 22 -59 13 -2 22 13 38 59 26 76 26 88 4 96 -10 3 -29 16 -43 29
-63 57 -189 95 -251 75z"/>
<path d="M4193 9362 c-29 -10 -71 -32 -94 -48 -174 -120 -187 -370 -27 -520
48 -44 117 -83 150 -84 14 0 15 -5 7 -36 -13 -46 4 -104 32 -104 16 0 19 7 19
48 0 37 5 54 21 68 19 17 36 19 183 16 127 -2 170 1 203 13 44 17 113 84 113
110 0 26 -30 30 -47 6 -24 -35 -60 -43 -150 -36 l-83 7 31 36 c53 60 74 117
74 202 0 63 -5 85 -31 140 -41 87 -83 133 -150 166 -74 36 -177 42 -251 16z
m185 -81 c57 -29 115 -89 149 -153 23 -44 28 -66 28 -130 0 -69 -3 -81 -30
-120 -84 -121 -263 -131 -385 -21 -157 141 -150 351 14 430 64 30 158 28 224
-6z"/>
<path d="M7814 9279 c-3 -6 2 -25 11 -43 l18 -33 -101 -145 c-119 -169 -141
-215 -142 -282 0 -67 30 -125 93 -182 128 -115 265 -126 362 -28 18 18 73 90
123 160 95 136 122 166 144 163 51 -7 51 22 1 55 -21 14 -49 34 -63 45 -14 11
-33 21 -42 21 -22 0 -24 -33 -3 -50 8 -7 15 -22 15 -34 0 -20 -164 -262 -213
-314 -75 -81 -193 -69 -280 27 -47 52 -63 103 -48 158 7 23 58 107 119 195
100 143 110 153 140 154 53 1 59 18 15 50 -21 15 -58 43 -82 61 -48 36 -56 39
-67 22z"/>
<path d="M3598 8986 c-21 -18 -38 -42 -38 -52 0 -10 32 -128 71 -262 39 -134
69 -246 65 -249 -3 -3 -112 38 -243 91 -131 53 -245 96 -253 96 -23 0 -93 -77
-87 -93 4 -11 17 -13 49 -10 42 5 47 3 103 -48 32 -30 105 -112 163 -184 102
-129 103 -130 97 -172 -5 -37 -4 -43 12 -43 21 0 143 116 143 136 0 17 -24 18
-51 3 -11 -5 -29 -7 -39 -4 -20 6 -234 245 -226 252 2 2 95 -32 206 -76 112
-44 207 -78 212 -75 14 9 10 24 -57 247 -36 119 -65 220 -65 224 0 10 179
-167 231 -229 33 -39 38 -50 30 -70 -10 -26 0 -53 17 -47 5 2 39 32 76 66 86
81 87 113 2 78 -16 -7 -50 23 -197 176 -175 180 -195 209 -168 236 12 12 6 43
-8 43 -4 -1 -25 -16 -45 -34z"/>
<path d="M5610 8845 c-966 -119 -1789 -700 -2223 -1570 -142 -286 -235 -598
-278 -940 -17 -128 -17 -521 0 -650 57 -453 214 -882 456 -1245 120 -180 233
-316 391 -470 232 -226 432 -368 719 -510 401 -198 746 -285 1186 -297 375
-10 687 37 1034 157 141 49 442 194 570 275 239 151 508 389 687 608 343 420
560 931 629 1482 17 130 17 522 0 650 -110 867 -561 1594 -1281 2068 -361 237
-786 390 -1225 442 -158 18 -515 18 -665 0z m695 -100 c1050 -140 1924 -863
2256 -1865 103 -311 134 -514 134 -870 0 -283 -10 -375 -61 -610 -176 -797
-729 -1497 -1468 -1860 -496 -243 -1018 -331 -1561 -264 -748 92 -1419 484
-1872 1091 -296 398 -470 841 -529 1349 -20 168 -14 521 10 682 120 794 552
1475 1211 1912 386 255 814 405 1285 450 132 12 451 4 595 -15z"/>
<path d="M5759 8489 c-4 -348 -15 -798 -19 -802 -3 -3 -39 -2 -80 0 l-76 5
-149 394 c-81 217 -150 392 -152 390 -2 -1 28 -184 67 -406 39 -221 70 -404
68 -405 -3 -3 -101 -30 -139 -39 -24 -5 -35 11 -240 343 -118 192 -215 348
-217 346 -1 -1 58 -161 132 -355 l134 -353 -127 6 c-70 3 -135 9 -144 13 -9 3
-105 102 -213 220 -108 118 -198 214 -200 214 -2 0 18 -35 44 -77 27 -43 81
-131 121 -196 41 -65 71 -120 68 -123 -5 -5 -105 12 -134 23 -10 4 -13 -27
-13 -141 l0 -146 -197 147 c-109 80 -214 158 -233 172 -35 26 21 -37 293 -331
l137 -149 0 -129 0 -128 -372 179 c-204 98 -373 179 -376 179 -2 0 165 -125
372 -277 l376 -278 0 -67 c0 -41 -4 -68 -10 -68 -6 0 -216 54 -467 120 -251
66 -458 118 -460 117 -2 -2 208 -105 467 -228 l470 -224 0 -42 c0 -32 -4 -43
-15 -43 -8 0 -250 16 -537 35 -286 19 -522 34 -524 33 -1 -2 240 -66 537 -143
l539 -140 0 -32 c0 -26 -4 -32 -27 -37 -16 -3 -251 -32 -523 -66 -272 -33
-508 -64 -524 -68 -18 -4 178 -20 500 -40 291 -18 539 -35 552 -38 17 -3 22
-11 22 -37 l0 -33 -520 -169 c-286 -92 -518 -170 -517 -172 2 -1 234 26 515
62 281 36 514 65 517 65 3 0 5 -22 5 -49 l0 -49 -440 -243 c-242 -133 -438
-244 -437 -246 2 -2 197 60 433 137 236 77 432 140 437 140 4 0 7 -37 6 -82
l0 -83 -320 -265 c-176 -146 -325 -271 -331 -278 -14 -16 3 -9 352 156 274
130 295 138 300 118 5 -17 25 -25 116 -47 193 -47 334 -62 516 -56 141 4 178
9 277 36 99 27 129 31 243 31 141 0 234 -16 308 -54 l45 -23 48 24 c84 43 174
55 352 50 133 -4 175 -9 249 -31 180 -52 399 -54 663 -6 59 11 111 20 116 20
4 0 7 14 7 30 0 17 2 30 5 30 2 0 35 -19 72 -42 317 -194 526 -318 516 -307
-6 8 -142 131 -302 274 l-291 260 0 93 c0 50 2 92 4 92 2 0 193 -70 425 -155
232 -85 425 -155 429 -155 4 0 -186 116 -423 258 l-430 258 -3 52 c-3 46 -1
52 17 52 10 0 239 -36 507 -80 268 -44 489 -79 490 -77 2 2 -225 87 -504 188
l-507 185 -3 36 -3 36 143 6 c79 3 328 11 553 17 226 6 411 12 413 14 1 1
-105 19 -235 40 -131 21 -380 61 -553 89 l-315 51 -3 32 c-2 23 1 33 15 37 10
2 257 58 550 122 293 65 531 119 530 120 -1 1 -196 -4 -432 -11 -237 -8 -483
-15 -547 -15 l-118 0 0 36 c0 42 -41 21 568 285 221 96 399 175 394 177 -4 1
-218 -45 -474 -103 -257 -58 -472 -105 -478 -105 -7 0 -10 23 -8 62 l3 63 387
265 c213 146 390 268 393 272 4 3 -168 -70 -381 -163 -213 -93 -391 -169 -396
-169 -4 0 -8 48 -8 108 l0 107 258 265 c174 179 241 253 207 230 -27 -19 -138
-94 -245 -168 -107 -74 -201 -137 -207 -139 -10 -4 -13 34 -13 169 l0 175 -31
-5 c-25 -4 -30 -2 -24 9 5 8 58 88 118 179 l109 165 -194 -193 -195 -194 -69
-8 c-72 -10 -234 -13 -234 -5 0 3 105 254 252 600 16 39 25 66 20 60 -5 -5
-105 -153 -221 -327 -121 -183 -218 -318 -226 -318 -18 0 -156 37 -163 44 -2
3 32 177 77 388 45 211 81 388 81 393 0 6 -73 -163 -162 -375 -89 -212 -162
-386 -162 -386 -1 -1 -38 -5 -84 -9 l-83 -7 7 433 c3 239 4 432 2 429 -3 -3
-48 -207 -99 -454 -106 -508 -100 -492 -180 -458 l-44 19 -79 459 c-43 253
-80 461 -82 463 -2 2 -4 -34 -5 -80z m111 -874 c30 -9 67 -24 83 -31 l27 -15
0 -1395 c0 -1326 -1 -1396 -17 -1389 -102 43 -139 49 -308 49 -150 1 -180 -2
-255 -23 -144 -40 -170 -44 -320 -44 -151 0 -275 16 -443 54 l-97 22 0 1395 0
1394 28 -7 c70 -18 239 -45 352 -55 160 -15 295 -6 435 30 157 40 146 39 310
35 105 -2 166 -8 205 -20z m795 -15 c113 -30 130 -32 285 -32 147 -1 253 9
408 38 l32 6 -2 -1398 -3 -1399 -85 -17 c-241 -49 -478 -46 -663 9 -85 26
-105 28 -272 28 -141 0 -193 -4 -240 -17 -33 -10 -70 -20 -82 -24 l-23 -6 0
1385 0 1385 23 14 c27 18 105 44 172 57 28 5 113 9 190 7 121 -3 156 -7 260
-36z"/>
<path d="M5025 7130 c-4 -6 -4 -33 0 -59 6 -42 2 -57 -25 -112 -18 -35 -43
-80 -57 -102 -27 -42 -23 -57 13 -57 21 0 30 10 52 60 15 32 30 59 35 60 4 0
7 -25 7 -55 0 -58 18 -81 43 -56 18 18 -8 302 -30 319 -21 15 -30 15 -38 2z"/>
<path d="M5581 7094 c-32 -23 -51 -73 -51 -134 0 -41 5 -56 25 -75 50 -51 139
-18 165 62 17 51 7 123 -20 145 -28 22 -88 23 -119 2z"/>
<path d="M5325 7080 c-3 -6 5 -39 19 -73 41 -102 43 -140 13 -186 -29 -43 -26
-51 13 -51 29 0 86 52 76 68 -3 5 12 58 34 117 22 59 40 111 40 116 0 13 -42
21 -53 10 -6 -6 -18 -35 -27 -64 l-17 -52 -13 45 c-7 25 -20 53 -28 63 -17 19
-47 23 -57 7z"/>
<path d="M5816 7080 c-73 -22 -87 -78 -31 -131 38 -36 37 -49 -5 -49 -29 0
-49 -28 -35 -50 14 -22 87 -7 118 25 26 26 20 61 -18 103 -38 43 -37 52 7 52
33 0 47 23 28 45 -14 17 -22 17 -64 5z"/>
<path d="M5172 7035 c-55 -46 -68 -169 -21 -207 26 -22 87 -23 115 -3 32 22
54 77 54 134 0 42 -5 57 -25 76 -32 33 -84 33 -123 0z"/>
<path d="M4711 7024 c-51 -42 -67 -141 -31 -187 44 -55 132 -40 165 29 27 57
25 127 -5 159 -32 34 -88 34 -129 -1z"/>
<path d="M5595 6396 c-14 -10 -23 -11 -37 -3 -29 19 -38 -3 -45 -109 -5 -90
-4 -101 15 -124 29 -35 40 -19 48 70 6 72 16 100 35 100 13 0 10 -116 -4 -187
-14 -67 -9 -90 17 -80 30 12 48 77 53 187 6 121 -4 160 -40 160 -13 0 -32 -6
-42 -14z"/>
<path d="M4976 6392 c-2 -4 -1 -27 4 -52 7 -40 4 -52 -32 -125 -22 -44 -49
-92 -59 -106 -21 -30 -16 -39 21 -39 22 0 31 9 56 62 l29 61 5 -59 c4 -47 9
-60 24 -62 10 -2 22 0 27 5 12 12 -10 293 -24 311 -10 13 -43 16 -51 4z"/>
<path d="M5334 6356 l-29 -24 -3 -166 c-3 -157 -2 -166 15 -166 31 0 43 21 43
77 0 50 1 53 25 53 38 0 79 25 93 55 20 44 15 118 -11 156 -19 28 -30 35 -64
37 -32 2 -47 -2 -69 -22z"/>
<path d="M5176 6345 c-14 -11 -23 -12 -33 -4 -7 6 -20 9 -28 5 -13 -5 -15 -25
-13 -122 3 -99 6 -119 21 -128 26 -16 37 7 37 82 0 64 12 102 32 102 10 0 8
-78 -5 -235 -2 -24 2 -30 18 -30 35 0 49 49 53 181 3 79 0 129 -7 143 -13 24
-47 27 -75 6z"/>
<path d="M5767 6344 c-56 -30 -55 -83 2 -131 22 -19 24 -24 11 -33 -8 -5 -25
-10 -37 -10 -18 0 -23 -6 -23 -25 0 -35 22 -41 75 -20 74 28 83 65 30 124 -19
21 -35 41 -35 44 0 3 15 7 33 9 27 2 32 7 32 28 0 21 -5 25 -30 27 -16 2 -43
-4 -58 -13z"/>
<path d="M4686 6298 c-24 -34 -20 -48 14 -48 22 0 30 -5 30 -18 0 -21 -26 -61
-57 -85 -27 -21 -30 -49 -8 -67 26 -22 67 17 90 86 33 93 34 94 28 9 -6 -88 6
-113 47 -100 19 6 20 12 14 91 l-7 84 31 0 c37 0 61 32 41 56 -8 10 -37 14
-110 14 -90 0 -99 -2 -113 -22z"/>
<path d="M4695 5610 c-4 -6 1 -17 10 -24 10 -7 19 -31 22 -59 5 -43 3 -50 -36
-96 -50 -60 -73 -103 -62 -114 15 -15 45 1 71 40 l25 36 8 -41 c10 -53 35 -69
77 -47 34 18 42 51 10 42 -24 -6 -28 -1 -39 59 -9 47 -8 49 35 104 24 31 44
64 44 73 0 30 -23 31 -49 1 l-27 -30 -14 31 c-16 31 -61 47 -75 25z"/>
<path d="M5464 5610 c-63 -9 -74 -15 -74 -41 0 -14 7 -19 26 -19 26 0 26 0 19
-62 -3 -35 -8 -75 -11 -90 -5 -25 -2 -28 20 -28 32 0 35 6 42 82 8 96 12 106
37 110 16 2 22 10 22 28 0 29 -9 31 -81 20z"/>
<path d="M5592 5595 c-33 -24 -57 -117 -43 -166 13 -42 35 -59 78 -59 61 0
104 58 105 141 0 71 -21 99 -75 99 -23 0 -52 -7 -65 -15z"/>
<path d="M5823 5579 c-35 -10 -63 -42 -63 -72 0 -11 16 -35 35 -54 39 -39 38
-53 -5 -53 -29 0 -49 -28 -35 -50 14 -23 89 -6 125 30 29 29 25 45 -21 95 -43
46 -42 51 11 57 19 2 25 9 25 28 0 29 -21 34 -72 19z"/>
<path d="M5282 5471 c-2 -60 1 -108 8 -120 15 -29 64 -28 84 1 22 31 22 55 0
34 -30 -30 -37 -8 -30 90 l7 94 -33 0 -33 0 -3 -99z"/>
<path d="M5137 5549 c-9 -5 -24 -23 -32 -39 -17 -34 -49 -300 -37 -312 25 -25
52 22 52 88 0 21 5 24 35 24 49 0 81 34 90 94 17 112 -37 186 -108 145z"/>
<path d="M4932 5515 c-45 -25 -72 -77 -72 -135 0 -60 18 -85 55 -78 16 3 36 1
45 -4 12 -8 25 -6 48 6 32 16 42 41 21 48 -8 3 -7 26 5 82 9 43 16 85 16 92 0
21 -74 14 -118 -11z"/>
<path d="M6250 7058 c-18 -29 -47 -112 -66 -191 -6 -27 -5 -28 21 -25 23 2 31
11 44 46 8 23 18 42 22 42 4 0 15 -20 26 -45 14 -35 23 -45 41 -45 33 0 36 22
13 76 -12 25 -21 48 -21 50 0 2 17 15 38 29 47 31 71 70 54 87 -9 9 -24 4 -61
-20 l-50 -30 -3 26 c-5 40 -34 40 -58 0z"/>
<path d="M6588 7064 c-3 -3 -20 -7 -37 -9 -58 -7 -102 -50 -122 -117 -19 -68
24 -133 72 -107 17 9 24 9 27 0 9 -27 92 0 92 31 0 11 -4 16 -10 13 -14 -8
-13 10 6 100 13 65 14 79 2 86 -15 10 -23 11 -30 3z"/>
<path d="M6690 6943 c-26 -113 -21 -146 23 -151 35 -4 57 13 57 45 0 21 -3 23
-14 14 -26 -22 -26 5 -2 98 l23 91 -32 0 -33 0 -22 -97z"/>
<path d="M6485 6400 c-3 -5 -3 -31 1 -58 5 -43 2 -57 -31 -123 -21 -41 -47
-87 -58 -103 -16 -23 -17 -30 -6 -37 32 -20 49 -9 83 59 l35 67 1 -63 c0 -65
15 -87 43 -64 10 9 11 39 0 157 -6 81 -17 153 -24 161 -13 16 -35 18 -44 4z"/>
<path d="M6300 6331 c-50 -10 -88 -38 -111 -82 -23 -47 -25 -97 -3 -128 13
-19 23 -22 49 -18 18 3 37 1 43 -5 16 -16 82 9 82 32 0 10 -4 20 -9 22 -5 2
-1 41 9 87 10 47 17 89 14 93 -6 9 -23 9 -74 -1z"/>
<path d="M6662 6318 c-12 -16 -50 -199 -44 -216 5 -16 37 -15 50 1 5 6 13 28
17 47 12 65 26 100 40 100 7 0 15 -6 18 -13 8 -20 -12 -105 -39 -166 -26 -58
-29 -77 -14 -86 34 -21 93 81 116 202 18 94 18 108 -2 127 -14 14 -19 14 -52
1 -32 -14 -37 -14 -44 0 -11 18 -32 20 -46 3z"/>
<path d="M6267 5728 c-66 -39 -117 -188 -101 -296 16 -104 112 -134 191 -60
52 49 90 232 64 311 -23 68 -83 86 -154 45z"/>
<path d="M6484 5545 c-35 -37 -48 -79 -42 -135 4 -39 37 -68 89 -76 33 -6 37
-4 41 20 4 19 1 26 -11 26 -20 0 -61 27 -61 41 0 5 13 9 29 9 16 0 37 8 47 17
16 17 15 18 -15 24 -18 4 -35 10 -39 14 -11 11 38 45 64 45 19 0 24 5 24 25 0
23 -4 25 -46 25 -40 0 -51 -5 -80 -35z"/>
<path d="M7053 5546 c-61 -28 -68 -73 -18 -123 39 -39 38 -53 -5 -53 -29 0
-49 -28 -35 -50 16 -26 125 10 139 45 10 28 7 34 -35 80 -43 46 -42 51 11 57
19 2 25 9 25 28 0 31 -34 37 -82 16z"/>
<path d="M6643 5443 c-19 -87 -20 -100 -7 -120 19 -30 58 -30 78 -1 23 33 21
51 -4 38 -17 -9 -20 -8 -20 12 0 13 9 55 20 93 11 38 20 71 20 72 0 2 -15 3
-33 3 l-32 0 -22 -97z"/>
<path d="M6881 5530 c-68 -16 -121 -81 -121 -150 0 -53 25 -83 64 -77 17 2 38
0 46 -5 9 -6 25 -6 43 1 30 12 46 39 29 50 -7 4 -5 33 7 93 10 48 16 90 13 93
-7 7 -39 5 -81 -5z"/>
<path d="M5484 4720 c-34 -5 -91 -18 -127 -29 -182 -56 -420 -54 -716 5 -100
20 -126 22 -133 12 -15 -24 -2 -32 78 -49 312 -68 557 -73 774 -13 193 52 449
42 582 -24 l57 -28 32 19 c58 38 157 58 299 64 141 5 191 -2 355 -47 155 -42
459 -37 675 13 46 10 56 16 58 36 4 22 1 23 -30 17 -296 -63 -526 -64 -743 -5
-110 29 -132 32 -270 32 -157 1 -242 -13 -332 -53 -41 -18 -47 -18 -74 -4 -91
47 -341 75 -485 54z"/>
<path d="M5497 4620 c-38 -5 -98 -18 -135 -29 -191 -58 -427 -56 -727 4 -65
13 -121 22 -123 21 -2 -2 -4 -15 -6 -29 -2 -17 -51 -79 -142 -179 -218 -240
-230 -253 -214 -242 8 6 123 89 255 185 132 97 245 178 250 181 9 6 205 -18
212 -25 1 -2 -52 -104 -118 -227 -198 -370 -232 -435 -222 -425 6 6 125 152
267 326 l256 316 87 7 c47 3 88 4 90 2 3 -2 -57 -199 -132 -436 -75 -238 -135
-434 -133 -435 2 -2 116 207 253 463 l251 466 38 8 c22 5 41 7 42 5 2 -2 -23
-239 -56 -528 -33 -288 -59 -530 -58 -538 2 -8 77 223 167 512 90 289 167 531
171 537 4 6 18 8 31 5 l25 -6 38 -512 c36 -482 52 -659 55 -612 0 12 28 259
61 549 33 291 60 530 60 531 0 5 61 28 64 24 2 -2 69 -242 149 -534 80 -291
146 -514 146 -495 1 19 -17 262 -39 540 -22 278 -40 511 -40 518 0 7 13 12 33
12 l34 0 243 -495 c134 -272 245 -493 246 -492 1 1 -56 213 -127 471 -71 259
-129 472 -129 476 0 3 37 -3 83 -15 l83 -20 242 -320 c133 -176 253 -333 267
-350 14 -16 -52 125 -145 315 l-171 345 98 7 c54 3 114 8 134 10 34 3 47 -7
275 -212 131 -118 230 -201 220 -185 -11 17 -79 120 -152 229 -94 140 -130
203 -123 212 7 9 4 44 -5 44 0 0 -46 -9 -101 -19 -264 -52 -473 -49 -692 10
-104 28 -134 32 -253 32 -150 0 -234 -12 -327 -49 l-62 -25 -38 19 c-87 44
-313 70 -456 52z"/>
<path d="M8510 8751 c0 -11 5 -32 10 -46 8 -20 6 -35 -6 -61 -18 -37 -306
-298 -345 -313 -15 -5 -35 -3 -56 6 -29 12 -34 11 -39 -1 -6 -16 112 -161 130
-161 10 0 11 17 4 73 -2 19 24 47 137 146 98 87 141 119 143 107 1 -9 -13
-144 -33 -301 -30 -243 -33 -286 -21 -298 12 -12 38 7 182 134 93 81 191 168
217 192 43 39 52 43 82 38 19 -4 36 -2 40 4 5 9 -91 132 -120 152 -21 15 -28
-12 -15 -52 12 -36 12 -45 -1 -64 -17 -28 -278 -260 -285 -254 -2 3 12 147 33
320 l37 315 -35 41 c-37 45 -59 53 -59 23z"/>
<path d="M2893 8251 c-24 -38 -43 -74 -43 -80 0 -16 35 -14 50 4 28 34 51 24
299 -140 79 -52 121 -110 121 -166 0 -86 -92 -201 -171 -214 -56 -10 -98 8
-239 98 -186 118 -192 124 -185 157 9 39 -13 50 -37 19 -35 -44 -98 -146 -98
-158 0 -16 35 -14 50 4 7 8 19 15 28 15 8 0 78 -41 154 -91 174 -113 207 -129
281 -129 71 0 118 22 174 83 82 88 119 203 93 281 -20 62 -67 104 -231 212
-153 100 -169 115 -169 155 0 40 -35 18 -77 -50z"/>
<path d="M9022 8044 c-62 -28 -64 -49 -6 -49 21 0 44 -4 51 -8 12 -8 83 -132
83 -146 0 -11 -420 -241 -439 -241 -7 0 -26 8 -42 17 -21 12 -32 14 -40 6 -7
-7 4 -35 40 -98 28 -48 52 -93 54 -98 2 -6 11 -8 21 -4 13 5 16 14 11 40 -5
24 -2 37 12 49 20 17 419 238 431 238 11 0 82 -136 82 -158 0 -11 -7 -25 -15
-32 -17 -14 -20 -36 -6 -45 12 -7 111 53 111 68 0 5 -35 74 -79 151 -43 78
-102 185 -131 239 -35 65 -57 97 -68 96 -10 0 -41 -12 -70 -25z"/>
<path d="M2533 7533 c-4 -10 -30 -44 -59 -75 -72 -79 -99 -148 -99 -258 1
-101 23 -156 91 -225 63 -63 139 -97 228 -103 178 -11 295 93 342 304 19 85
15 165 -9 192 -25 27 -86 57 -97 46 -5 -5 2 -26 20 -52 51 -76 52 -183 4 -273
-63 -116 -223 -152 -371 -84 -103 47 -162 124 -163 212 0 59 34 143 72 180 38
37 111 72 149 73 14 0 33 6 43 13 23 17 10 28 -58 51 -63 21 -85 20 -93 -1z"/>
<path d="M2237 6753 c-3 -5 -8 -37 -12 -73 -4 -36 -16 -114 -26 -175 -23 -135
-24 -175 -4 -175 8 0 21 14 30 30 9 18 23 30 35 30 11 0 127 -16 257 -35 130
-19 238 -35 240 -35 2 0 11 -16 19 -36 19 -46 37 -39 46 17 54 350 52 325 31
361 -18 31 -75 78 -95 78 -19 0 -19 -30 1 -57 27 -37 43 -125 35 -190 -10 -85
-12 -85 -134 -67 -58 9 -108 19 -112 23 -11 10 17 152 33 162 8 5 24 9 36 9
25 0 40 17 26 31 -5 5 -47 16 -94 23 -114 18 -138 8 -78 -35 31 -22 31 -23 25
-83 -13 -112 -2 -104 -119 -88 -56 8 -106 18 -111 23 -13 12 10 157 29 186 10
15 25 23 45 23 56 0 47 32 -15 49 -47 13 -82 14 -88 4z"/>
<path d="M9639 6472 c-11 -31 -14 -33 -452 -241 -116 -55 -148 -74 -145 -88 2
-12 84 -47 308 -130 216 -80 310 -120 322 -136 28 -36 39 -10 36 79 -2 62 -6
79 -18 79 -8 0 -21 -12 -28 -27 -7 -16 -21 -28 -32 -28 -15 0 -329 107 -430
146 -14 5 124 76 358 184 l72 33 25 -23 c32 -30 37 -18 33 91 -3 71 -6 84 -21
87 -12 2 -21 -6 -28 -26z"/>
<path d="M2764 6153 c-17 -59 -27 -65 -317 -202 -211 -99 -287 -139 -285 -151
2 -10 111 -59 312 -140 245 -99 311 -130 319 -147 6 -13 19 -23 30 -23 18 0
19 5 13 53 -3 28 -6 71 -6 95 0 35 -3 42 -19 42 -12 0 -23 -11 -30 -30 -13
-39 -36 -39 -127 -2 l-69 29 -7 114 c-6 84 -4 117 5 125 13 13 150 74 165 74
5 0 14 -11 20 -25 18 -40 42 -32 42 13 0 98 -13 192 -27 192 -7 0 -16 -8 -19
-17z m-250 -319 c9 -69 7 -124 -4 -124 -17 0 -190 72 -190 79 0 5 164 87 181
90 4 1 9 -20 13 -45z"/>
<path d="M9056 5751 c-3 -5 -11 -44 -16 -87 -6 -44 -18 -114 -25 -158 -8 -43
-15 -94 -15 -114 0 -43 36 -94 80 -112 46 -19 57 -1 26 44 -14 21 -28 58 -32
83 -8 53 2 163 16 177 6 6 42 6 102 -3 140 -19 131 -13 124 -83 -11 -89 -19
-106 -58 -110 -25 -2 -33 -8 -33 -23 0 -16 11 -21 75 -31 101 -17 120 -17 120
0 0 7 -12 21 -26 31 -26 17 -27 19 -20 93 3 42 10 80 14 84 8 8 196 -17 214
-28 11 -7 2 -79 -18 -151 -14 -50 -16 -52 -52 -55 -29 -2 -37 -7 -37 -23 0
-16 11 -23 54 -33 66 -16 79 -12 85 30 3 18 17 103 31 190 31 191 31 198 5
198 -11 0 -20 -7 -20 -15 0 -8 -10 -21 -23 -29 -20 -14 -44 -12 -247 19 -286
44 -269 39 -286 80 -14 35 -28 44 -38 26z"/>
<path d="M2500 5260 c-171 -54 -192 -57 -210 -35 -14 17 -36 20 -45 5 -7 -11
43 -180 54 -180 17 0 31 26 31 57 0 21 6 36 18 41 9 5 87 30 173 56 239 70
300 62 355 -51 35 -71 38 -154 6 -205 -30 -48 -90 -77 -279 -133 l-163 -49
-23 22 c-26 24 -47 29 -47 10 0 -7 13 -53 29 -103 19 -61 33 -91 44 -93 13 -3
17 4 17 25 0 15 4 34 9 41 4 7 79 35 167 61 189 57 218 69 263 107 66 55 88
156 57 269 -38 145 -107 206 -233 204 -52 0 -105 -12 -223 -49z"/>
<path d="M8966 5211 c-3 -4 -22 -54 -42 -110 -42 -120 -37 -147 19 -86 l35 38
106 -37 c58 -21 106 -43 106 -50 -1 -6 -9 -27 -18 -46 -17 -34 -19 -35 -152
-65 -145 -33 -191 -52 -214 -88 -20 -30 -30 -73 -22 -94 6 -14 12 -11 40 16
28 28 54 38 167 67 74 18 141 34 149 34 8 0 26 -23 40 -53 60 -125 210 -142
280 -31 27 43 110 269 110 299 0 23 -21 18 -52 -12 l-27 -26 -163 58 c-314
112 -317 114 -324 143 -9 44 -13 52 -23 52 -5 0 -12 -4 -15 -9z m402 -298 c59
-22 102 -43 102 -51 0 -46 -68 -126 -117 -138 -33 -9 -110 23 -130 52 -25 39
-3 174 29 174 7 0 59 -17 116 -37z"/>
<path d="M3145 4780 c-4 -6 7 -26 24 -46 30 -33 31 -38 31 -124 0 -50 -2 -90
-5 -90 -3 0 -24 15 -48 33 -155 119 -409 46 -495 -141 -72 -158 10 -362 177
-440 45 -22 71 -27 131 -27 65 0 85 5 142 33 87 42 162 123 183 196 l15 52 55
0 c38 -1 59 4 71 16 25 24 8 38 -46 38 -78 0 -85 17 -86 215 -1 131 -5 168
-19 198 -31 66 -110 119 -130 87z m-77 -242 c96 -24 174 -147 158 -252 -28
-182 -242 -324 -394 -261 -82 35 -132 117 -132 217 1 131 86 242 223 289 62
22 83 23 145 7z"/>
<path d="M8707 4559 c-26 -40 -47 -81 -47 -91 0 -22 23 -24 40 -3 25 30 53 12
103 -62 l48 -72 -52 -83 c-77 -123 -74 -120 -144 -108 -112 20 -125 27 -125
66 0 22 -5 34 -14 34 -14 0 -126 -168 -126 -189 0 -17 25 -13 53 9 14 11 35
20 47 20 12 0 155 -25 318 -55 162 -31 301 -54 309 -51 7 3 10 12 6 22 -4 10
-78 130 -165 266 -190 300 -182 285 -182 327 -1 19 -6 36 -12 38 -6 2 -31 -29
-57 -68z m242 -387 c29 -46 51 -86 48 -88 -8 -8 -198 31 -199 41 -1 16 86 145
93 137 3 -4 29 -44 58 -90z"/>
<path d="M8078 3261 c-67 -26 -114 -58 -138 -91 -52 -73 -576 -311 -910 -414
-263 -81 -531 -135 -770 -155 -69 -6 -146 -13 -172 -16 -27 -2 -48 -2 -48 1 0
3 9 22 20 44 29 56 27 88 -7 96 -33 9 -67 -27 -84 -89 l-12 -42 -14 55 c-18
70 -26 77 -54 51 -13 -11 -26 -21 -31 -21 -16 0 -7 -37 17 -70 14 -19 25 -34
25 -35 0 -4 -157 8 -275 21 -503 54 -948 188 -1427 431 -114 57 -160 86 -200
127 -38 38 -71 60 -113 76 -77 28 -125 36 -125 21 0 -24 31 -71 62 -94 34 -26
115 -57 147 -57 11 0 99 -40 196 -90 550 -277 1080 -427 1614 -456 64 -4 121
-10 128 -13 8 -4 1 -20 -22 -50 -19 -24 -32 -47 -29 -52 3 -5 21 -9 40 -9 27
0 42 8 68 36 l33 36 32 -37 c34 -39 61 -41 61 -6 0 11 -14 36 -30 55 l-31 34
28 6 c15 3 71 8 123 11 497 32 987 172 1530 437 124 61 252 117 284 124 85 21
149 59 175 104 11 21 21 40 21 44 0 12 -66 5 -112 -13z"/>
<path d="M7770 3230 c-84 -44 -160 -135 -160 -190 0 -24 1 -24 46 -5 94 39
174 128 174 193 0 27 -14 27 -60 2z"/>
<path d="M4120 3223 c0 -48 23 -93 70 -137 49 -46 134 -95 146 -84 10 11 -14
79 -41 114 -30 39 -119 108 -152 119 -18 5 -23 2 -23 -12z"/>
<path d="M7420 3063 c-95 -56 -136 -98 -155 -160 -9 -31 14 -30 81 1 87 41
154 112 154 166 0 28 -25 26 -80 -7z"/>
<path d="M4446 3043 c17 -70 66 -123 154 -168 51 -26 80 -32 80 -16 0 45 -62
120 -144 173 -73 47 -99 50 -90 11z"/>
<path d="M7755 2989 c-40 -12 -90 -53 -81 -67 9 -15 107 -25 172 -17 45 5 64
14 95 42 30 27 37 38 27 44 -17 11 -175 10 -213 -2z"/>
<path d="M7099 2958 c-72 -37 -145 -104 -155 -143 -9 -35 -1 -40 43 -27 97 29
171 96 194 174 10 37 -2 36 -82 -4z"/>
<path d="M3970 2960 c-12 -8 -10 -14 14 -39 16 -17 45 -36 64 -42 40 -13 142
-16 190 -5 l34 8 -28 29 c-16 16 -50 36 -78 44 -55 17 -173 20 -196 5z"/>
<path d="M4760 2942 c0 -38 46 -107 92 -138 52 -35 135 -70 144 -61 12 12 -7
57 -39 94 -36 40 -115 94 -164 111 -29 10 -33 9 -33 -6z"/>
<path d="M6794 2871 c-90 -42 -164 -115 -164 -161 0 -24 120 21 193 72 26 18
67 84 67 108 0 17 -33 11 -96 -19z"/>
<path d="M5065 2862 c11 -47 44 -89 92 -121 51 -34 152 -75 162 -66 3 4 -6 28
-20 53 -29 53 -120 120 -196 146 l-45 15 7 -27z"/>
<path d="M7450 2835 c-25 -8 -58 -27 -74 -42 l-30 -27 25 -7 c13 -4 60 -7 104
-8 89 -1 150 20 179 60 15 22 15 24 -1 31 -31 12 -156 7 -203 -7z"/>
<path d="M4305 2793 l-50 -15 28 -24 c41 -35 95 -46 170 -34 73 11 140 36 133
49 -25 40 -184 54 -281 24z"/>
<path d="M5360 2798 c0 -17 28 -63 52 -84 42 -39 173 -93 226 -94 20 0 -11 52
-54 90 -58 50 -224 116 -224 88z"/>
<path d="M6474 2785 c-82 -31 -139 -70 -165 -112 -12 -19 -19 -36 -17 -38 7
-8 129 25 171 46 23 12 53 31 65 43 22 19 52 67 52 81 0 11 -48 3 -106 -20z"/>
<path d="M7110 2713 c-25 -2 -56 -6 -68 -9 -34 -7 -13 -28 54 -54 62 -23 192
-27 259 -9 37 11 38 12 20 26 -43 31 -171 53 -265 46z"/>
<path d="M4650 2684 c-8 -3 -34 -12 -57 -20 -24 -9 -43 -19 -43 -24 0 -17 108
-33 191 -28 64 3 96 11 133 30 37 19 46 27 35 34 -15 10 -235 17 -259 8z"/>
<path d="M5015 2600 c-56 -10 -127 -39 -120 -50 2 -4 31 -13 64 -20 85 -18
205 -9 259 19 66 34 57 38 -118 56 -19 1 -57 -1 -85 -5z"/>
<path d="M6693 2603 c-37 -7 -27 -22 33 -50 52 -23 65 -25 163 -21 155 6 176
26 68 62 -45 15 -204 21 -264 9z"/>
<path d="M6295 2542 c-18 -8 -18 -9 5 -25 64 -41 104 -51 210 -52 64 0 113 5
125 12 18 11 15 14 -40 39 -52 24 -75 28 -170 31 -60 1 -119 -1 -130 -5z"/>
<path d="M5355 2526 c-57 -18 -100 -42 -88 -49 21 -13 153 -27 200 -21 50 7
163 51 163 64 0 23 -208 27 -275 6z"/>
<path d="M9374 10116 c-3 -7 4 -31 15 -52 46 -84 26 -115 -236 -376 -236 -234
-248 -242 -317 -213 -34 15 -41 15 -54 2 -12 -13 -2 -27 86 -116 54 -56 107
-101 116 -101 20 0 20 26 1 60 -32 56 -26 64 185 275 109 109 201 197 203 195
2 -3 -9 -205 -25 -449 -27 -401 -28 -445 -14 -459 17 -17 34 -2 422 381 108
107 199 188 210 189 10 0 31 -2 45 -6 17 -5 29 -3 38 8 10 12 -3 30 -83 110
-52 53 -102 96 -110 96 -21 0 -21 -39 0 -68 22 -32 20 -86 -4 -119 -28 -38
-390 -398 -395 -393 -3 3 8 217 24 475 l28 470 -52 53 c-52 53 -73 63 -83 38z"/>
<path d="M2158 9761 c-115 -114 -208 -215 -208 -223 0 -25 21 -27 62 -7 24 12
44 16 58 11 29 -11 507 -477 525 -513 11 -21 12 -35 5 -54 -15 -38 -12 -65 5
-65 21 0 377 364 393 401 25 59 -15 199 -58 199 -15 0 -18 -11 -22 -68 -2 -50
-11 -83 -33 -126 -34 -68 -151 -196 -179 -196 -20 0 -246 216 -246 235 0 21
157 165 179 165 11 0 35 -9 52 -19 34 -21 59 -18 59 7 0 26 -171 192 -197 192
-27 0 -28 -8 -6 -54 22 -48 9 -76 -80 -164 l-72 -72 -119 119 -120 120 85 86
c113 117 156 137 194 95 10 -11 29 -20 42 -20 37 0 29 33 -24 92 -50 57 -63
68 -78 67 -5 0 -103 -94 -217 -208z"/>
<path d="M1707 9288 c-8 -13 -35 -58 -61 -100 -26 -43 -44 -82 -41 -88 10 -16
38 -11 65 10 34 26 41 25 77 -12 35 -38 382 -503 390 -524 4 -11 -2 -13 -23
-9 -16 3 -95 16 -177 29 -81 13 -158 31 -170 39 -12 8 -62 72 -112 142 -66 95
-91 139 -95 169 -8 62 -33 59 -66 -6 -15 -29 -37 -67 -50 -84 -42 -54 -27 -86
27 -59 17 9 41 14 53 11 17 -5 136 -151 136 -168 0 -9 -212 31 -226 43 -8 6
-14 24 -14 39 0 48 -28 45 -58 -7 -15 -25 -49 -79 -75 -121 -27 -41 -46 -81
-43 -88 9 -23 37 -16 77 21 22 19 42 35 47 35 4 0 92 -13 195 -29 134 -21 194
-34 208 -47 26 -23 171 -225 166 -230 -2 -2 -156 20 -342 49 -279 45 -341 58
-352 73 -7 10 -11 24 -9 30 7 17 -19 48 -33 40 -6 -4 -22 -28 -36 -54 -13 -26
-38 -67 -54 -92 -52 -76 -35 -108 36 -71 l39 21 434 -70 c239 -39 446 -69 460
-68 51 6 37 39 -90 207 -66 89 -116 161 -111 161 5 0 86 -11 181 -25 197 -29
236 -30 243 -11 9 22 -6 44 -270 407 -263 363 -273 377 -282 423 -8 38 -26 43
-44 14z"/>
<path d="M10245 9160 c-3 -5 -1 -27 6 -48 8 -28 8 -45 1 -59 -12 -21 -560
-400 -604 -417 -23 -8 -32 -7 -57 12 -61 45 -91 14 -46 -46 15 -20 52 -75 82
-122 63 -95 73 -105 91 -86 10 10 10 21 1 58 -7 25 -10 51 -7 59 7 17 590 419
619 426 12 4 33 -3 50 -16 31 -23 59 -22 59 2 0 7 -18 38 -40 67 -22 30 -59
82 -81 117 -39 60 -60 75 -74 53z"/>
<path d="M10597 8643 c-4 -3 -7 -26 -7 -49 0 -50 22 -24 -355 -433 -143 -155
-264 -291 -269 -302 -6 -13 -6 -23 1 -30 8 -8 148 -7 478 2 448 12 469 12 501
-6 58 -31 64 -9 22 82 -19 43 -40 91 -47 106 -16 41 -45 32 -48 -13 -1 -19 -2
-41 -2 -48 -1 -7 -13 -17 -28 -23 -23 -9 -681 -44 -689 -37 -4 5 453 502 476
517 16 11 26 11 46 2 60 -27 70 -1 29 76 -14 27 -36 74 -50 106 -22 52 -41 68
-58 50z"/>
<path d="M941 7848 c-13 -31 -62 -206 -69 -240 -3 -23 -1 -28 17 -28 11 0 28
11 37 25 32 49 43 49 204 4 83 -23 150 -45 150 -48 0 -11 -121 -445 -125 -449
-9 -9 -309 84 -316 98 -4 8 -11 32 -14 53 -5 29 -10 37 -23 35 -12 -2 -25 -32
-44 -103 -15 -55 -33 -118 -40 -141 -12 -42 -7 -74 12 -74 5 0 21 18 34 39 14
22 34 42 44 45 16 5 615 -153 694 -183 33 -12 41 -26 48 -76 4 -32 10 -41 27
-43 17 -3 24 3 28 25 4 15 22 83 41 150 19 67 34 129 34 138 0 30 -37 14 -68
-30 -17 -25 -39 -45 -49 -45 -26 0 -316 81 -327 91 -8 7 94 411 113 445 4 8
39 2 111 -18 228 -62 239 -67 245 -93 3 -14 7 -37 10 -51 4 -19 11 -25 27 -22
17 2 25 14 35 58 7 30 25 97 39 148 27 93 25 120 -7 107 -8 -3 -26 -24 -41
-45 -18 -25 -36 -40 -49 -40 -31 0 -681 180 -706 196 -15 9 -23 26 -25 51 -4
45 -32 58 -47 21z"/>
<path d="M11046 7524 c-3 -9 -6 -28 -6 -43 0 -38 -24 -56 -95 -75 -163 -41
-600 -137 -631 -138 -29 -1 -41 5 -61 30 -24 32 -47 40 -58 23 -3 -6 8 -61 24
-123 16 -62 42 -174 56 -248 15 -74 34 -147 43 -162 28 -47 145 -98 192 -83
30 9 22 28 -30 67 -61 46 -105 114 -135 209 -32 103 -33 147 -2 158 43 16 308
73 314 67 3 -3 16 -54 29 -113 26 -122 22 -139 -35 -163 -30 -12 -42 -42 -22
-54 5 -4 58 5 118 19 59 14 118 28 131 31 13 2 22 12 22 23 0 21 -19 31 -55
31 -13 0 -32 11 -44 26 -23 29 -68 211 -55 223 5 4 76 23 158 41 138 30 150
32 161 16 17 -23 57 -217 53 -258 -2 -28 -10 -36 -45 -53 -23 -11 -45 -23 -49
-27 -12 -13 18 -38 46 -38 51 0 142 23 147 38 4 8 -6 62 -21 121 -14 58 -40
171 -56 249 -43 206 -48 222 -69 222 -11 0 -22 -7 -25 -16z"/>
<path d="M670 6660 c-12 -8 -16 -52 -22 -248 -4 -132 -11 -306 -17 -388 -6
-94 -6 -153 0 -160 5 -6 43 -17 85 -23 104 -15 114 -15 114 9 0 14 -14 26 -50
41 -36 16 -52 29 -57 47 -6 27 3 241 11 249 10 10 728 -26 741 -37 7 -6 16
-23 20 -38 9 -36 23 -52 46 -52 17 0 19 8 19 78 0 42 3 114 7 160 6 80 5 82
-16 82 -17 0 -27 -10 -38 -40 -12 -29 -24 -42 -42 -47 -25 -6 -691 15 -721 23
-13 3 -15 23 -11 121 2 65 7 128 12 141 9 23 14 26 62 37 22 4 28 11 25 28 -3
20 -9 22 -78 25 -41 1 -82 -2 -90 -8z"/>
<path d="M11230 6574 c-6 -14 -10 -32 -10 -39 0 -38 -35 -43 -390 -54 -190 -5
-356 -8 -368 -4 -13 3 -31 22 -43 44 -13 26 -26 39 -39 39 -20 0 -20 -5 -16
-165 3 -90 7 -169 11 -174 13 -21 35 3 50 55 8 29 23 58 33 62 9 5 88 12 175
15 l157 5 0 -73 0 -74 -142 -97 c-249 -169 -268 -191 -268 -307 0 -94 35 -114
56 -32 10 41 66 90 244 215 154 108 155 109 170 87 106 -159 330 -166 409 -13
31 61 36 124 26 362 -7 162 -8 174 -26 174 -12 0 -23 -10 -29 -26z m-12 -216
c15 -15 15 -71 1 -138 -13 -59 -57 -116 -106 -136 -47 -20 -127 -17 -171 5
-57 29 -76 70 -80 178 l-4 92 103 4 c57 1 136 4 175 5 44 1 74 -2 82 -10z"/>
<path d="M1512 5758 c-7 -7 -12 -23 -12 -36 0 -44 -40 -91 -199 -237 l-156
-143 -41 38 c-65 60 -100 74 -179 75 -88 0 -151 -33 -190 -100 -42 -70 -42
-145 -2 -370 30 -170 35 -190 53 -190 14 0 22 11 30 44 6 25 19 50 30 57 20
13 637 114 698 114 28 0 41 -7 63 -35 55 -69 76 -38 52 76 -6 29 -17 91 -23
138 -10 76 -13 86 -31 86 -16 0 -22 -10 -30 -52 -6 -29 -17 -59 -26 -68 -10
-11 -69 -25 -169 -41 -84 -14 -154 -23 -157 -21 -10 10 -24 127 -16 140 4 7
65 64 134 124 209 184 235 224 217 337 -9 57 -27 83 -46 64z m-462 -430 c29
-15 50 -36 63 -60 20 -41 45 -174 34 -184 -8 -9 -280 -53 -323 -54 -38 0 -44
15 -44 110 0 109 35 163 128 196 54 19 92 17 142 -8z"/>
<path d="M10425 5571 c-72 -30 -135 -215 -122 -358 11 -112 64 -199 152 -246
30 -16 58 -22 115 -22 64 0 82 4 122 27 60 36 93 79 163 216 65 128 96 169
140 188 65 27 151 -19 176 -94 16 -48 6 -149 -19 -197 -31 -61 -75 -96 -149
-120 -52 -17 -68 -27 -68 -41 0 -21 50 -32 163 -33 59 -1 62 0 62 22 0 13 13
50 29 83 56 113 66 266 23 350 -56 109 -174 158 -296 122 -62 -19 -123 -88
-179 -204 -88 -180 -131 -227 -207 -226 -98 2 -170 89 -170 206 0 141 96 256
229 275 34 4 47 11 49 25 2 10 -2 22 -10 27 -17 11 -176 10 -203 0z"/>
<path d="M10185 4753 c-9 -32 -29 -94 -46 -139 -16 -44 -29 -90 -29 -102 0
-36 34 -27 64 18 17 26 34 40 48 40 24 0 684 -214 707 -229 8 -5 17 -29 20
-53 5 -34 10 -43 25 -43 13 0 22 10 28 30 5 17 25 77 44 135 19 58 34 111 34
118 0 24 -36 11 -63 -23 -16 -20 -37 -35 -48 -35 -37 0 -666 210 -692 230 -19
15 -27 32 -29 63 -2 35 -7 43 -25 45 -19 3 -24 -4 -38 -55z"/>
<path d="M1310 4672 c-219 -73 -340 -230 -340 -441 0 -275 205 -491 466 -492
95 -1 145 11 235 56 153 77 248 212 257 363 11 201 -110 412 -284 494 -62 29
-80 33 -174 35 -81 2 -118 -1 -160 -15z m353 -106 c64 -31 120 -89 151 -155
17 -37 21 -65 21 -146 0 -129 -25 -187 -122 -284 -124 -124 -292 -177 -430
-136 -109 32 -187 115 -218 230 -58 213 94 439 342 511 76 21 190 13 256 -20z"/>
<path d="M9906 4055 c-19 -42 -52 -103 -72 -136 -51 -85 -30 -121 34 -59 18
17 39 30 48 30 15 0 463 -229 612 -312 l52 -29 -55 -108 c-68 -132 -82 -147
-126 -132 -34 12 -59 1 -59 -24 0 -14 96 -63 142 -72 26 -5 30 0 109 158 45
90 126 246 181 347 64 117 97 189 93 200 -8 22 -128 102 -155 102 -30 0 -25
-28 15 -72 43 -47 43 -45 -32 -186 l-54 -102 -147 76 c-389 204 -488 257 -499
266 -7 5 -13 35 -15 66 -2 44 -7 58 -20 60 -12 2 -26 -17 -52 -73z"/>
<path d="M1830 3509 c-284 -204 -339 -239 -360 -234 -69 17 -80 17 -80 1 0 -9
27 -53 61 -98 33 -46 68 -94 78 -107 22 -32 57 -23 46 12 -4 12 -9 45 -12 72
-4 45 -2 53 24 77 47 45 448 329 451 320 2 -7 -168 -794 -193 -892 -4 -19 1
-35 22 -63 62 -85 71 -93 84 -80 10 10 10 24 -1 67 -12 52 -12 56 14 100 16
27 53 65 94 95 223 166 422 303 454 312 32 10 41 9 71 -10 77 -47 89 -13 24
71 -24 31 -59 79 -76 107 -22 34 -40 51 -53 51 -21 0 -21 3 -2 -88 4 -19 0
-34 -13 -49 -21 -25 -453 -335 -453 -326 0 4 43 198 96 431 52 234 94 434 92
446 -2 11 -10 22 -18 23 -8 2 -166 -105 -350 -238z"/>
<path d="M9422 3297 c-22 -30 -63 -80 -91 -112 -28 -32 -51 -64 -51 -72 0 -24
27 -25 69 -3 53 26 57 24 219 -112 l124 -103 69 -210 c45 -139 69 -226 69
-257 0 -60 16 -70 49 -31 140 163 148 177 115 190 -8 3 -28 -4 -44 -16 -37
-27 -56 -27 -74 2 -20 30 -110 296 -103 303 8 9 339 -36 353 -47 8 -6 10 -23
7 -43 -9 -58 26 -59 65 -2 13 18 47 62 77 96 30 35 55 72 55 82 0 23 -29 24
-68 1 -29 -17 -40 -16 -259 11 -125 16 -237 33 -248 39 -11 6 -78 57 -148 115
-142 115 -131 96 -110 195 10 48 -29 34 -75 -26z"/>
<path d="M8795 2060 c-11 -12 -37 -35 -57 -52 l-37 -29 -71 42 c-39 23 -72 40
-75 38 -2 -2 10 -35 26 -73 16 -37 29 -73 29 -78 0 -6 -26 -35 -57 -64 -32
-30 -51 -52 -43 -50 8 2 43 7 78 10 l63 6 34 -73 33 -72 23 77 23 77 70 11
c39 6 76 13 81 14 6 2 -12 16 -39 32 -89 53 -87 50 -70 123 18 76 15 90 -11
61z"/>
<path d="M3170 2033 c0 -5 7 -30 15 -57 8 -27 15 -57 15 -66 0 -10 -26 -35
-62 -58 -69 -45 -68 -47 33 -57 l65 -6 26 -77 26 -77 17 40 c9 22 23 55 31 74
l14 34 81 -6 82 -7 -66 52 -65 52 29 79 c16 44 28 81 27 83 -2 1 -36 -18 -76
-43 l-72 -45 -54 46 c-54 46 -66 53 -66 39z"/>
<path d="M7045 1720 c-16 -23 -55 -64 -87 -91 -32 -28 -58 -57 -58 -65 0 -25
30 -28 61 -5 62 46 62 46 178 -296 116 -343 114 -328 48 -372 -36 -24 -46 -44
-27 -56 11 -7 327 98 342 113 22 22 -4 35 -59 28 -47 -5 -56 -4 -76 16 -15 16
-59 130 -135 353 -61 182 -116 349 -122 373 -6 23 -17 42 -24 42 -7 0 -26 -18
-41 -40z"/>
<path d="M4935 1684 c-22 -8 -78 -20 -125 -27 -74 -10 -85 -15 -85 -32 0 -16
8 -21 35 -23 62 -5 80 -11 80 -32 0 -10 -40 -159 -89 -331 -62 -218 -95 -317
-108 -327 -12 -9 -32 -11 -64 -7 -38 5 -47 4 -53 -11 -9 -24 0 -30 74 -49 36
-9 109 -30 163 -47 54 -16 104 -27 112 -24 29 11 14 36 -32 58 -79 38 -80 28
41 444 59 203 108 380 109 393 3 30 -8 33 -58 15z"/>
<path d="M6530 1645 c-22 -21 -42 -27 -140 -40 -168 -22 -167 -22 -179 -58
-15 -49 -26 -373 -13 -381 6 -4 40 1 74 10 144 37 234 -15 259 -150 22 -120
-28 -226 -131 -279 -50 -26 -63 -28 -140 -25 -73 3 -85 1 -88 -14 -5 -28 37
-42 128 -42 179 1 293 88 336 254 39 154 -16 299 -135 356 -47 23 -139 30
-197 15 -26 -7 -47 -11 -48 -9 -8 13 11 180 22 187 6 4 60 13 120 20 59 7 115
17 124 22 10 5 26 39 38 75 26 87 17 106 -30 59z"/>
<path d="M5550 1571 c-91 -32 -160 -126 -160 -216 0 -48 22 -104 58 -146 33
-38 34 -42 17 -51 -38 -22 -97 -83 -117 -122 -32 -63 -36 -159 -8 -224 72
-167 294 -214 432 -92 80 70 113 184 83 287 -13 46 -28 69 -72 113 -34 34 -50
56 -41 59 33 10 106 98 118 141 16 58 1 139 -34 185 -54 70 -179 100 -276 66z
m146 -62 c57 -27 84 -72 84 -138 0 -148 -127 -197 -241 -94 -134 121 -4 311
157 232z m-104 -400 c55 -28 135 -105 160 -153 39 -77 4 -187 -73 -226 -124
-64 -258 32 -267 190 -5 91 29 157 103 198 27 15 30 15 77 -9z"/>
</g>
</svg>
